<?xml version="1.0" encoding="iso-8859-1"?>
<!-- Generator: Adobe Illustrator 19.0.0, SVG Export Plug-In . SVG Version: 6.00 Build 0)  -->
<svg version="1.1" id="Capa_1" xmlns="http://www.w3.org/2000/svg" xmlns:xlink="http://www.w3.org/1999/xlink" x="0px" y="0px"
	 viewBox="0 0 512 512" style="enable-background:new 0 0 512 512;" xml:space="preserve">
<path style="fill:#78AA55;" d="M230.95,368.231l64.13-32.065l0,0c0-12.341-11.428-21.509-23.476-18.832l-48.67,10.816
	L230.95,368.231z"/>
<path style="fill:#96BE4B;" d="M349.509,229.399L338.167,204.9c-21.869,38.033,2.276,94.411,4.801,181.12
	c0.429,14.678-2.405,29.444-9.429,42.339c-7.639,14.023-20.911,28.04-43.449,28.029c-0.133,0-0.266,0.015-0.399,0.022
	c-23.963,0-44.164-18.746-44.992-42.694c-1.941-56.139,18.316-114.941,18.316-173.744c0-12.455-4.746-23.785-12.521-32.314
	c-7.907-8.676-11.527-20.444-11.527-32.183v-4.489c0-13.387,6.231-25.653,15.925-34.887c9.502-9.051,16.14-22.291,16.14-40.419
	c0-10.629-1.581-21.199-4.693-31.363l-1.959-6.397C254.915,30.54,236.314,7.5,214.918,7.5c-21.553,0-40.269,23.379-49.669,51.023
	l-1.781,5.839c-3.092,10.134-4.664,20.67-4.664,31.265v0.052c0,18.128,6.638,31.368,16.14,40.419
	c9.693,9.234,15.925,21.499,15.925,34.887v4.489c0,11.739-3.621,23.507-11.527,32.183c-7.776,8.529-12.521,19.86-12.521,32.314
	v157.112c0,51.169,35.576,96.889,85.959,105.821c65.782,11.662,121.453-42.462,119.122-102.608
	C368.706,317.818,347.501,263.073,349.509,229.399z"/>
<g>
	<path style="fill:#4B3F4E;" d="M174.836,95.679L174.836,95.679c-8.855,0-16.033-7.178-16.033-16.032V71.63
		c0-8.854,7.178-16.032,16.032-16.032l0,0c8.854,0,16.032,7.178,16.032,16.032v8.016C190.869,88.501,183.691,95.679,174.836,95.679z
		"/>
	<path style="fill:#4B3F4E;" d="M254.999,95.679L254.999,95.679c-8.855,0-16.033-7.178-16.033-16.032V71.63
		c0-8.854,7.178-16.032,16.032-16.032l0,0c8.854,0,16.032,7.178,16.032,16.032v8.016C271.031,88.501,263.853,95.679,254.999,95.679z
		"/>
</g>
<path style="fill:#78AA55;" d="M206.901,440.377V231.955c0-33.638,2.206-56.249,4.302-70.146c1.665-11.028,0.988-22.34-2.957-32.771
	c-20.227-53.478,4.484-100.15,19.988-118.485c-4.272-1.938-8.725-3.054-13.316-3.054c-21.553,0-40.269,23.379-49.669,51.023
	l-1.781,5.839c-3.092,10.134-4.664,20.67-4.664,31.265v0.052c0,18.128,6.638,31.368,16.14,40.419
	c9.693,9.234,15.925,21.499,15.925,34.887v4.491c0,11.739-3.621,23.506-11.527,32.182c-7.776,8.529-12.521,19.859-12.521,32.314
	v82.834l-24.622-5.472c-12.046-2.677-23.475,6.491-23.475,18.832l48.097,24.049v36.868c0,51.169,35.576,96.889,85.959,105.821
	c4.985,0.884,9.883,1.271,14.733,1.425C233.741,502.491,206.901,474.607,206.901,440.377z"/>
<g>
	<path style="fill:#5D5360;" d="M174.836,95.679L174.836,95.679c-8.855,0-16.033-7.178-16.033-16.032V71.63
		c0-8.854,7.178-16.032,16.032-16.032l0,0c8.854,0,16.032,7.178,16.032,16.032v8.016C190.869,88.501,183.691,95.679,174.836,95.679z
		"/>
	<path style="fill:#5D5360;" d="M254.999,95.679L254.999,95.679c-8.855,0-16.033-7.178-16.033-16.032V71.63
		c0-8.854,7.178-16.032,16.032-16.032l0,0c8.854,0,16.032,7.178,16.032,16.032v8.016C271.031,88.501,263.853,95.679,254.999,95.679z
		"/>
</g>
<path d="M421.036,186.356c-0.008-0.004-0.016-0.009-0.025-0.014c-0.001,0-0.001,0-0.001,0c-0.244-0.138-1.158-0.647-2.623-1.365
	c-5.028-2.486-16.7-7.642-30.375-9.557c-25.157-3.524-44.637,5.379-56.347,25.743c-14.94,25.984-10.35,57.877-4.537,98.256
	c4.008,27.842,8.55,59.399,8.55,97.538c0,3.498-0.263,6.922-0.78,10.178c-0.65,4.091,2.139,7.935,6.229,8.585
	c4.092,0.649,7.935-2.14,8.585-6.229c0.641-4.032,0.966-8.249,0.966-12.533c0-39.212-4.624-71.335-8.703-99.676
	c-3.976-27.618-7.169-49.81-4.298-68.043c-0.103,16.495,4.504,37.204,9.938,61.632c6.767,30.42,15.188,68.277,16.794,109.717
	c0.979,25.251-9.22,50.403-27.979,69.009c-18.996,18.839-43.872,28.54-70.081,27.301c-24.93-1.173-48.167-12.196-65.43-31.038
	c-17.151-18.722-26.598-43.051-26.598-68.505V239.971c0-10.106,3.752-19.789,10.564-27.265c8.695-9.542,13.484-22.767,13.484-37.238
	v-4.484c0-14.786-6.482-29.104-18.252-40.317c-7.863-7.491-12.389-17.224-13.521-28.981c2.566,0.963,5.342,1.492,8.241,1.492
	c12.976,0,23.532-10.557,23.532-23.533V71.63c0-12.072-9.139-22.045-20.861-23.376C187.252,27.933,201.429,15,214.918,15
	c13.45,0,27.656,12.945,37.408,33.254c-11.721,1.332-20.859,11.305-20.859,23.376v8.016c0,12.976,10.557,23.533,23.532,23.533
	c2.898,0,5.674-0.53,8.24-1.492c-1.132,11.758-5.658,21.491-13.52,28.981c-11.771,11.213-18.252,25.531-18.252,40.317v4.484
	c0,14.472,4.789,27.696,13.484,37.237c6.813,7.477,10.564,17.16,10.564,27.265c0,27.734-4.712,56.098-9.268,83.53
	c-4.514,27.168-9.18,55.262-9.18,82.496c0,15.24,5.049,29.528,14.218,40.232c9.766,11.4,23.404,17.68,38.404,17.68
	c0.125,0,0.249-0.003,0.374-0.01c15.724-0.784,30.469-7.245,41.519-18.192c2.942-2.915,2.965-7.664,0.05-10.606
	c-2.916-2.942-7.664-2.964-10.606-0.05c-8.377,8.3-19.565,13.217-31.523,13.858c-24.315-0.113-37.435-22.163-37.435-42.912
	c0-12.558,1.023-25.176,2.595-37.997l26.323-13.271l-6.397,19.192c-2.441,7.323-1.134,15.384,3.499,21.562l19.009,25.345
	c1.474,1.965,3.726,3.001,6.006,3c1.565,0,3.146-0.488,4.494-1.5c3.313-2.485,3.985-7.187,1.5-10.5l-7.968-10.624l14.101-3.103
	c4.046-0.891,6.604-4.892,5.714-8.937c-0.891-4.045-4.895-6.601-8.937-5.714l-20.766,4.569l-1.153-1.537
	c-1.68-2.239-2.154-5.162-1.269-7.817l12.15-36.451c2.809-8.426,1.041-17.486-4.729-24.239c-5.769-6.752-14.438-9.911-23.206-8.451
	l-9.552,1.592c3.759-23.363,7.033-47.258,7.033-71.145c0-6.178-1.029-12.239-2.991-17.969l19.183-4.453
	c8.978-2.083,15.947-9.27,17.755-18.308l7.451-37.257l26.222-11.323c3.803-1.642,5.554-6.056,3.912-9.858s-6.056-5.554-9.859-3.912
	l-16.698,7.211l2.977-14.887c0.813-4.062-1.822-8.013-5.884-8.825c-4.062-0.81-8.013,1.822-8.825,5.884L289.753,196.3
	c-0.655,3.277-3.182,5.883-6.438,6.638l-22.792,5.291c-1.367-1.957-2.859-3.84-4.486-5.625c-6.172-6.773-9.571-16.409-9.571-27.134
	v-4.484c0-10.642,4.829-21.103,13.598-29.457c12.081-11.509,18.467-27.363,18.467-45.85V71.63c0-6.738-2.851-12.819-7.404-17.112
	c-5.232-14.779-12.652-27.619-21.502-37.172C239.111,5.998,227.109,0,214.918,0c-22.535,0-44.469,21.344-56.206,54.513
	c-4.556,4.294-7.409,10.377-7.409,17.117v24.049c0,18.485,6.386,34.339,18.467,45.849c8.77,8.354,13.599,18.816,13.599,29.457v4.484
	c0,10.724-3.399,20.361-9.572,27.134c-1.627,1.786-3.119,3.669-4.486,5.625l-22.792-5.291c-3.255-0.755-5.781-3.361-6.437-6.638
	l-14.006-70.027c-0.813-4.061-4.763-6.693-8.825-5.884c-4.062,0.813-6.696,4.764-5.884,8.825l2.978,14.887l-16.698-7.21
	c-3.807-1.643-8.218,0.109-9.859,3.912s0.109,8.217,3.912,9.858l26.222,11.323l7.452,37.258c1.808,9.038,8.777,16.224,17.754,18.307
	l19.183,4.453c-1.961,5.73-2.991,11.79-2.991,17.969v72.318l-16.049-2.766c-8.758-1.457-17.434,1.699-23.204,8.452
	c-5.77,6.752-7.537,15.813-4.729,24.239l12.15,36.451c0.886,2.655,0.411,5.578-1.268,7.817l-1.153,1.537l-20.766-4.569
	c-4.052-0.889-8.047,1.669-8.937,5.714s1.668,8.046,5.714,8.937l14.101,3.103l-7.968,10.624c-2.485,3.313-1.813,8.015,1.5,10.5
	c1.35,1.012,2.929,1.5,4.494,1.5c2.28,0,4.532-1.035,6.006-3l19.009-25.345c4.632-6.177,5.939-14.237,3.498-21.562l-6.44-19.318
	l24.041,11.966v30.783c0,29.216,10.846,57.143,30.538,78.638c19.956,21.782,46.87,34.528,75.784,35.89
	c1.731,0.081,3.454,0.122,5.175,0.121c28.528-0.001,55.411-11.165,76.174-31.756c21.735-21.556,33.547-50.803,32.405-80.239
	c-1.658-42.794-10.242-81.385-17.14-112.394c-7.005-31.488-12.537-56.36-7.929-70.737c3.862-12.052,10.181-19.873,18.78-23.246
	c15.306-6.003,34.376,2.653,39.306,5.134c0.78,0.395,1.211,0.633,1.231,0.645c3.604,2.032,8.171,0.76,10.209-2.838
	C425.892,192.971,424.632,188.401,421.036,186.356z M275.501,324.32c3.575-0.6,6.981,0.642,9.336,3.399
	c1.74,2.037,2.566,4.51,2.42,7.05l-30.084,15.167c1.163-7.626,2.438-15.344,3.74-23.185L275.501,324.32z M254.999,88.179
	c-4.705,0-8.532-3.828-8.532-8.533V71.63c0-4.705,3.827-8.532,8.532-8.532c4.705,0,8.532,3.828,8.532,8.532v8.016
	C263.531,84.351,259.704,88.179,254.999,88.179z M183.369,71.63v8.016c0,4.705-3.827,8.533-8.532,8.533s-8.533-3.828-8.533-8.533
	V71.63c0-4.705,3.828-8.532,8.533-8.532S183.369,66.925,183.369,71.63z M129.05,334.749c-0.14-2.533,0.685-4.998,2.421-7.029
	c2.354-2.757,5.754-3.999,9.294-3.406l18.555,3.196v22.305L129.05,334.749z"/>
<g>
</g>
<g>
</g>
<g>
</g>
<g>
</g>
<g>
</g>
<g>
</g>
<g>
</g>
<g>
</g>
<g>
</g>
<g>
</g>
<g>
</g>
<g>
</g>
<g>
</g>
<g>
</g>
<g>
</g>
</svg>
