<svg id="_x33_0" enable-background="new 0 0 64 64" height="512" viewBox="0 0 64 64" width="512" xmlns="http://www.w3.org/2000/svg"><g><g><g><path d="m46 19c0 .72.39 1.36.97 1.71-.74.95-1.57 1.82-2.48 2.61-.54-.8-1.45-1.32-2.49-1.32-1.44 0-2.64 1.01-2.93 2.35-1.6-1.45-3.73-2.35-6.07-2.35h-1.48c1.61-2.41 4.36-4 7.48-4h6c.41 0 .82.03 1.22.08-.14.27-.22.59-.22.92z" fill="#ccd1d9"/></g><g><path d="m54 27v23c0 4.42-3.58 8-8 8h-5.07c.68-1.17 1.07-2.54 1.07-4h3c2.76 0 5-2.24 5-5v-20c0-2.76-2.24-5-5-5h-.17-.01c-.08-.24-.19-.47-.33-.68.91-.79 1.74-1.66 2.48-2.61.3.19.65.29 1.03.29.93 0 1.72-.65 1.94-1.52 2.45 1.61 4.06 4.37 4.06 7.52z" fill="#ccd1d9"/></g><g><path d="m45 24c2.76 0 5 2.24 5 5v20c0 2.76-2.24 5-5 5h-3v-23c0-1.07-.19-2.1-.53-3.05.17.03.35.05.53.05 1.66 0 3-1.34 3-3 0-.35-.06-.69-.18-1h.01z" fill="#e6e9ed"/></g><g><path d="m25.02 27.75c-.01.08-.02.16-.02.25 0 .14.01.27.04.4-1.79.76-3.04 2.53-3.04 4.6v20c0 2.76 2.24 5 5 5h6c2.76 0 5-2.24 5-5v-20c0-2.76-2.24-5-5-5h-.17-.01c-.4-1.17-1.51-2-2.82-2-.62 0-1.2.19-1.68.51-.35-.32-.81-.51-1.32-.51-1.01 0-1.86.76-1.98 1.75zm15.53-1.64c.38.57.68 1.19.92 1.84.34.95.53 1.98.53 3.05v23c0 1.46-.39 2.83-1.07 4-1.38 2.39-3.97 4-6.93 4h-8c-4.42 0-8-3.58-8-8v-23c0-1.53.38-2.97 1.06-4.24.28.16.6.24.94.24.69 0 1.3-.35 1.66-.88.22-.32.34-.71.34-1.12 0-.45-.15-.86-.4-1.2 1.5-1.13 3.37-1.8 5.4-1.8h4.52 1.48c2.34 0 4.47.9 6.07 2.35.57.52 1.07 1.11 1.48 1.76z" fill="#fcd770"/></g><g><circle cx="51" cy="4" fill="#ff826e" r="2"/></g><g><path d="m51 10c1.1 0 2 .9 2 2s-.9 2-2 2c-.22 0-.43-.04-.63-.1-.79-.27-1.37-1.02-1.37-1.9 0-1.09.88-1.98 1.97-2z" fill="#ff826e"/></g><g><path d="m50 19c0 .17-.02.33-.06.48-.22.87-1.01 1.52-1.94 1.52-.38 0-.73-.1-1.03-.29-.58-.35-.97-.99-.97-1.71 0-.33.08-.65.22-.92.34-.64 1.01-1.08 1.78-1.08.4 0 .78.12 1.1.33.54.36.9.97.9 1.67z" fill="#ff826e"/></g><g><circle cx="12" cy="4" fill="#ff826e" r="2"/></g><g><path d="m14 12c0 1.1-.9 2-2 2s-2-.9-2-2 .9-2 2-2h.02c1.09.01 1.98.91 1.98 2z" fill="#ff826e"/></g><g><path d="m17 19c0 1.1-.9 2-2 2s-2-.9-2-2c0-.66.33-1.26.83-1.62.33-.24.73-.38 1.17-.38 1.1 0 2 .9 2 2z" fill="#ff826e"/></g><g><path d="m21.6 23.8c.25.34.4.75.4 1.2 0 .41-.12.8-.34 1.12-.36.53-.97.88-1.66.88-.34 0-.66-.08-.94-.24-.63-.33-1.06-1-1.06-1.76 0-.49.17-.93.46-1.28.37-.44.93-.72 1.54-.72.65 0 1.23.32 1.6.8z" fill="#ff826e"/></g><g><path d="m29 28c0 .26-.05.52-.15.75-.27.68-.92 1.18-1.68 1.24-.05.01-.11.01-.17.01-.96 0-1.77-.69-1.96-1.6-.03-.13-.04-.26-.04-.4 0-.09.01-.17.02-.25.12-.99.97-1.75 1.98-1.75.51 0 .97.19 1.32.51.42.36.68.9.68 1.49z" fill="#ff826e"/></g><g><path d="m33 28c2.76 0 5 2.24 5 5v20c0 2.76-2.24 5-5 5h-6c-2.76 0-5-2.24-5-5v-20c0-2.07 1.25-3.84 3.04-4.6.19.91 1 1.6 1.96 1.6.06 0 .12 0 .17-.01.41 1.17 1.52 2.01 2.83 2.01 1.66 0 3-1.34 3-3 0-.35-.06-.69-.18-1h.01z" fill="#ffeaa7"/></g></g><g><path d="m25 35h2v14h-2z"/><path d="m29 35h2v10h-2z"/><path d="m33 35h2v2h-2z"/><path d="m33 39h2v2h-2z"/><path d="m45 31h2v2h-2z"/><path d="m45 35h2v6h-2z"/><path d="m50.998 19.022c0-.008.002-.015.002-.022 0-.733-.274-1.396-.712-1.917.302-.682.564-1.379.786-2.09 1.619-.041 2.926-1.364 2.926-2.993 0-1.304-.841-2.404-2.005-2.817.001-.061.005-.121.005-.183v-2.184c1.161-.414 2-1.514 2-2.816 0-1.654-1.346-3-3-3s-3 1.346-3 3c0 1.302.839 2.402 2 2.816v2.184c0 .062-.004.123-.005.186-1.159.415-1.995 1.514-1.995 2.814 0 .966.466 1.817 1.177 2.366-.178.574-.386 1.137-.622 1.69-.18-.034-.365-.056-.555-.056-.906 0-1.71.413-2.261 1.05-.247-.018-.491-.05-.739-.05h-6c-3.157 0-6.09 1.494-7.977 4h-4.023c-1.902 0-3.721.526-5.309 1.525-.482-.33-1.064-.525-1.691-.525-.528 0-1.017.149-1.449.389-.455-.457-.886-.936-1.292-1.437.455-.526.741-1.203.741-1.952 0-1.654-1.346-3-3-3-.213 0-.42.024-.621.066-.221-.551-.415-1.109-.583-1.678.726-.547 1.204-1.41 1.204-2.388 0-1.3-.836-2.399-1.995-2.814-.001-.062-.005-.124-.005-.186v-2.184c1.161-.414 2-1.514 2-2.816 0-1.654-1.346-3-3-3s-3 1.346-3 3c0 1.302.839 2.402 2 2.816v2.184c0 .061.004.122.004.183-1.163.413-2.004 1.513-2.004 2.817 0 1.617 1.287 2.929 2.89 2.989.218.732.474 1.452.771 2.156-.407.512-.661 1.151-.661 1.855 0 1.654 1.346 3 3 3 .17 0 .334-.023.496-.05.534.68 1.11 1.325 1.724 1.934-.139.346-.22.721-.22 1.116 0 .797.318 1.518.826 2.056-.532 1.241-.826 2.584-.826 3.944v23c0 4.962 4.038 9 9 9h8c3.113 0 5.861-1.59 7.478-4h4.522c4.962 0 9-4.038 9-9v-23c0-3.163-1.493-6.092-4.002-7.978zm.002-6.022c-.551 0-1-.449-1-1s.449-1 1-1 1 .449 1 1-.449 1-1 1zm0-10c.551 0 1 .449 1 1s-.449 1-1 1-1-.449-1-1 .449-1 1-1zm-3 15c.551 0 1 .449 1 1s-.449 1-1 1-1-.449-1-1 .449-1 1-1zm-7.779 6.101c.336-.657 1.017-1.101 1.779-1.101.361 0 .695.104.988.272-.682.543-1.409 1.042-2.174 1.505-.187-.235-.386-.459-.593-.676zm3.778.911c-.007 1.045-.82 1.894-1.847 1.972-.079-.179-.166-.354-.255-.528.735-.447 1.436-.928 2.102-1.444zm-1.22 3.909c1.789-.355 3.141-1.908 3.207-3.783 1.728.442 3.014 1.999 3.014 3.862v20c0 2.206-1.794 4-4 4h-2v-22c0-.713-.078-1.408-.221-2.079zm2.221-9.921c0 .664.224 1.272.59 1.77-.342.396-.695.782-1.07 1.15-.69-.566-1.56-.92-2.52-.92-1.355 0-2.587.703-3.316 1.783-1.442-1.001-3.158-1.624-5.011-1.749 1.45-1.295 3.335-2.034 5.327-2.034zm-25 5c.551 0 1 .449 1 1s-.449 1-1 1-1-.449-1-1 .449-1 1-1zm-8-21c.551 0 1 .449 1 1s-.449 1-1 1-1-.449-1-1 .449-1 1-1zm-1 9c0-.551.449-1 1-1s1 .449 1 1-.449 1-1 1-1-.449-1-1zm3 7c0-.551.449-1 1-1s1 .449 1 1-.449 1-1 1-1-.449-1-1zm20 42h-8c-3.86 0-7-3.14-7-7v-23c0-1.046.214-2.08.608-3.04.13.018.258.04.392.04.695 0 1.327-.247 1.836-.645.532.295 1.073.567 1.629.815-1.523 1.114-2.465 2.887-2.465 4.83v20c0 3.309 2.691 6 6 6h6c3.309 0 6-2.691 6-6v-20c0-3.155-2.448-5.742-5.544-5.977-.691-1.202-1.973-2.023-3.456-2.023-.565 0-1.115.124-1.623.35-.415-.216-.878-.35-1.377-.35-1.074 0-2.01.572-2.541 1.422-.525-.228-1.038-.478-1.541-.753.05-.215.082-.438.082-.669 0-.288-.054-.561-.13-.825 1.245-.756 2.651-1.175 4.13-1.175h6c4.411 0 8 3.589 8 8v23c0 3.86-3.14 7-7 7zm-4.632-31.18c.782.098 1.57.159 2.36.169-.346.601-.987 1.011-1.728 1.011-.501 0-.956-.203-1.314-.521.263-.18.488-.407.682-.659zm.62-1.939c-.012-.299-.07-.585-.164-.855.059-.005.116-.026.176-.026.733 0 1.367.4 1.716.989-.578-.009-1.154-.047-1.728-.108zm-1.988.119c0 .551-.449 1-1 1s-1-.449-1-1 .449-1 1-1 1 .449 1 1zm-1.488 2.951c.699 1.246 2.025 2.049 3.488 2.049 2.158 0 3.912-1.722 3.986-3.862 1.728.442 3.014 1.999 3.014 3.862v20c0 2.206-1.794 4-4 4h-6c-2.206 0-4-1.794-4-4v-20c0-1.284.616-2.456 1.615-3.2.454.6 1.123 1.023 1.897 1.151zm26.488 19.049c0 3.86-3.14 7-7 7h-3.525c.227-.638.389-1.306.466-2h2.059c3.309 0 6-2.691 6-6v-20c0-2.909-2.082-5.34-4.834-5.884.384-.389.74-.803 1.092-1.22.239.061.485.104.742.104.899 0 1.697-.406 2.248-1.034 1.738 1.51 2.752 3.695 2.752 6.034z"/></g></g></svg>