<svg id="Layer_4" height="512" viewBox="0 0 512 512" width="512" xmlns="http://www.w3.org/2000/svg" data-name="Layer 4"><circle cx="304" cy="448" fill="#064186" r="32"/><circle cx="152" cy="448" fill="#064186" r="32"/><path d="m176 432a32.15 32.15 0 0 0 -.523-5.736 31.987 31.987 0 0 0 -54.954 27.472 31.995 31.995 0 0 0 55.477-21.736z" fill="#0a529b"/><path d="m328 432a32.15 32.15 0 0 0 -.523-5.736 31.987 31.987 0 0 0 -54.954 27.472 31.995 31.995 0 0 0 55.477-21.736z" fill="#0a529b"/><path d="m406.136 192h-335.102a32 32 0 0 0 -31.379 38.276l19.2 96a32 32 0 0 0 31.379 25.724h291.243" fill="#fcc42d"/><g fill="#dda519"><path d="m136 312a8 8 0 0 1 -8-8v-72a8 8 0 0 1 16 0v72a8 8 0 0 1 -8 8z"/><path d="m192 312a8 8 0 0 1 -8-8v-72a8 8 0 0 1 16 0v72a8 8 0 0 1 -8 8z"/><path d="m248 312a8 8 0 0 1 -8-8v-72a8 8 0 0 1 16 0v72a8 8 0 0 1 -8 8z"/><path d="m304 312a8 8 0 0 1 -8-8v-72a8 8 0 0 1 16 0v72a8 8 0 0 1 -8 8z"/></g><path d="m128 192v-80h192v80" fill="#a2d2f9"/><path d="m120 112h207.986a8 8 0 0 0 4.056-14.9l-99.785-60.124a16 16 0 0 0 -16.515 0l-99.982 60.24a8 8 0 0 0 4.24 14.784z" fill="#0a529b"/><path d="m184 192v-32c0-4.418 3.98-8 8.889-8h62.222c4.909 0 8.889 3.582 8.889 8v32" fill="#064186"/><path d="m128 112h192v16h-192z" fill="#064186" opacity=".2"/><path d="m262.518 55.21-30.26-18.234a16 16 0 0 0 -16.515 0l-91.4 55.071c68.073 5.778 114.748-19.487 138.175-36.837z" fill="#fcfafa" opacity=".2"/><path d="m400 216 8-24h-336.966a32 32 0 0 0 -31.379 38.276l19.2 96a32 32 0 0 0 31.379 25.724h40.8c-35.034-8-35.034-48-35.034-48v-71.573a16 16 0 0 1 16.421-15.994z" fill="#fcfafa" opacity=".2"/><path d="m344.2 424h-264.2v-16h264.2a23.975 23.975 0 0 0 23.853-21.35l.044-.335 38.403-249.185a39.741 39.741 0 0 1 11.25-22.191l56.6-56.6 11.313 11.313-56.6 56.6a23.845 23.845 0 0 0 -6.75 13.315l-38.38 249.026a39.96 39.96 0 0 1 -39.733 35.407z" fill="#eaad18"/></svg>