<?xml version="1.0" encoding="UTF-8"?>
<!DOCTYPE svg PUBLIC "-//W3C//DTD SVG 1.1//EN" "http://www.w3.org/Graphics/SVG/1.1/DTD/svg11.dtd">
<!-- Creator: CorelDRAW 2020 (64-Bit) -->
<svg xmlns="http://www.w3.org/2000/svg" xml:space="preserve" width="3508px" height="2480px" version="1.1" style="shape-rendering:geometricPrecision; text-rendering:geometricPrecision; image-rendering:optimizeQuality; fill-rule:evenodd; clip-rule:evenodd"
viewBox="0 0 3508 2480.4"
 xmlns:xlink="http://www.w3.org/1999/xlink"
 xmlns:xodm="http://www.corel.com/coreldraw/odm/2003">
 <defs>
  <style type="text/css">
   <![CDATA[
    .fil2 {fill:white}
    .fil1 {fill:white;fill-rule:nonzero}
    .fil0 {fill:url(#id0)}
   ]]>
  </style>
  <linearGradient id="id0" gradientUnits="userSpaceOnUse" x1="440.04" y1="1132.33" x2="943.87" y2="982.53">
   <stop offset="0" style="stop-opacity:1; stop-color:#9900CC"/>
   <stop offset="1" style="stop-opacity:1; stop-color:fuchsia"/>
  </linearGradient>
 </defs>
 <g id="Layer_x0020_1">
  <metadata id="CorelCorpID_0Corel-Layer"/>
  <rect class="fil0" x="438.11" y="1085.23" width="303.14" height="69.05" rx="6.75" ry="5.65"/>
  <g id="_1593773957392">
   <polygon class="fil1" points="552.5,1128.28 557.14,1128.28 557.14,1109.24 552.5,1109.24 552.5,1116.7 545.29,1116.7 545.29,1109.24 540.65,1109.24 540.65,1128.28 545.29,1128.28 545.29,1120.45 552.5,1120.45 "/>
   <path id="1" class="fil1" d="M575.28 1120.72c0,-4.8 -3.41,-7.79 -7.86,-7.79 -4.42,0 -7.87,2.99 -7.87,7.79 0,4.8 3.37,7.78 7.81,7.78 4.45,0 7.92,-2.98 7.92,-7.78zm-11.01 0c0,-2.58 1.47,-3.77 3.15,-3.77 1.62,0 3.14,1.19 3.14,3.77 0,2.55 -1.54,3.77 -3.2,3.77 -1.68,0 -3.09,-1.22 -3.09,-3.77z"/>
   <polygon id="2" class="fil1" points="580.3,1128.28 585.4,1128.28 587.87,1118.47 590.25,1128.28 595.38,1128.28 599.47,1113.15 595.11,1113.15 592.99,1123.92 590.42,1113.15 585.51,1113.15 582.96,1123.97 580.81,1113.15 576.18,1113.15 "/>
   <polygon id="3" class="fil1" points="605.96,1112.96 611,1112.96 611,1128.28 615.64,1128.28 615.64,1112.96 620.68,1112.96 620.68,1109.24 605.96,1109.24 "/>
   <path id="4" class="fil1" d="M637.82 1120.72c0,-4.8 -3.42,-7.79 -7.86,-7.79 -4.42,0 -7.87,2.99 -7.87,7.79 0,4.8 3.37,7.78 7.81,7.78 4.45,0 7.92,-2.98 7.92,-7.78zm-11.01 0c0,-2.58 1.47,-3.77 3.15,-3.77 1.62,0 3.14,1.19 3.14,3.77 0,2.55 -1.54,3.77 -3.2,3.77 -1.68,0 -3.09,-1.22 -3.09,-3.77z"/>
   <path id="5" class="fil1" d="M656.53 1122.48c0,1.36 -0.89,2.06 -2.44,2.06l-3.41 0 0 -4.2 3.36 0c1.55,0 2.49,0.78 2.49,2.14zm-0.46 -7.51c0,1.3 -0.84,1.98 -2.35,1.98l-3.04 0 0 -3.99 3.04 0c1.51,0 2.35,0.71 2.35,2.01zm5.16 8.13c0,-2.17 -1.44,-4.12 -3.66,-4.58 1.84,-0.54 3.22,-2.03 3.22,-4.34 0,-3.01 -2.3,-4.94 -6.18,-4.94l-8.57 0 0 19.04 8.87 0c4.01,0 6.32,-2.03 6.32,-5.18z"/>
   <path id="6" class="fil1" d="M678.85 1113.15l-4.63 0 0 8.22c0,2.06 -1.14,3.2 -2.93,3.2 -1.74,0 -2.9,-1.14 -2.9,-3.2l0 -8.22 -4.61 0 0 8.84c0,4.04 2.35,6.46 5.85,6.46 2.04,0 3.67,-0.93 4.59,-2.23l0 2.06 4.63 0 0 -15.13z"/>
   <polygon id="7" class="fil1" points="689.16,1122.62 685.66,1113.15 680.48,1113.15 686.64,1127.77 683.17,1135.47 688.16,1135.47 697.65,1113.15 692.63,1113.15 "/>
   <g>
    <path class="fil2" d="M499.87 1121.32c0.92,-0.21 0.58,-0.43 2.1,-0.43 0.93,0 1.1,0.28 1.75,0.43 -0.09,0.33 -1.61,1.8 -1.92,2.01 -0.4,-0.26 -1.67,-1.51 -1.93,-2.01zm7.95 -6.11c0.23,0.05 1.14,0.56 1.4,0.7 -0.17,0.26 -0.67,0.79 -0.96,0.87 -0.22,-0.42 -0.44,-0.93 -0.44,-1.57zm0 0l0 0zm-12.66 -3.67c0,-1.44 0.65,-2.38 1.92,-3.06 0.3,0.62 0.25,2.22 2.87,3.16 0.44,0.16 1.09,0.32 1.5,0.51 -0.04,0.46 -0.24,0.75 -0.44,1.05 -1.78,2.69 -5.85,1.3 -5.85,-1.66zm26.12 -9.44l3.41 0 0 9.27 -3.41 0 0 -9.27zm-3.32 1.66l1.48 0 0 7.61 -1.48 0 0 -7.61zm-29.55 2.25c0.18,0.7 0.84,1.4 0.38,3.01 -0.11,0.38 -0.28,0.61 -0.36,0.95l-1.99 -1.95 1.97 -2.01zm4.91 5.44c0,0.69 0.24,1.49 0.45,2 0.36,0.9 0.95,1.52 1.68,2.07 2.05,1.56 5.37,1.16 7.06,-1.34 0.16,-0.23 0.27,-0.39 0.39,-0.66 0.13,-0.27 0.18,-0.51 0.29,-0.76l2.89 0.95c-0.01,0.43 -0.09,0.58 -0.09,1.5 0,1.19 0.57,2.25 1.05,2.97l-1.99 1.94c-2.1,-1.42 -4.39,-1.42 -6.49,-0.02l-8.84 -8.8c0.15,-0.54 1.97,-2.96 0.34,-5.94 -0.14,-0.25 -0.25,-0.34 -0.32,-0.64l1.9 -1.94c2.66,1.44 3.83,1.43 6.49,0.02l1.85 1.82c-1.51,0.37 -1.82,0.82 -2.43,1.71 -0.35,0.51 -0.69,0.11 -1.78,0.84 -0.71,0.47 -1.22,0.91 -1.68,1.64 -0.39,0.62 -0.77,1.68 -0.77,2.64zm6.64 -9.52l2.22 -0.75c1.59,-0.56 1.29,-0.65 3.11,-0.65 1.31,0 3.66,1.21 4.86,1.86l2.48 1.38c0.86,0.5 1.78,0.9 2.82,1.02 0.35,0.03 0.67,-0.08 0.67,0.28l0 6.64c0,0.6 -1.16,1.62 -1.56,1.94 -0.26,0.22 -0.74,0.49 -1.11,0.64 -2.02,0.82 -4.42,-0.05 -5.64,-1.6 -0.28,-0.36 -0.23,-0.36 -0.69,-0.53 -0.61,-0.22 -1.25,-0.41 -1.84,-0.61l-5.32 -1.85c-1.37,-0.78 -1.27,-2.3 -0.54,-2.9 1.05,-0.86 2.03,-0.17 3.2,0.16 1.32,0.38 5.71,1.96 6.69,1.96 0.34,0 1.56,-1.23 -0.34,-1.85 -1.01,-0.33 -5.59,-1.62 -6.02,-2.01l-2.8 -2.8c-0.24,-0.28 -0.08,-0.12 -0.19,-0.33zm-5.09 -2.38l1.97 1.92c-0.56,0.31 -1.03,0.55 -1.86,0.55l-0.17 0c-0.78,0 -1.33,-0.26 -1.84,-0.53l1.9 -1.94zm16.45 16.79c0.78,0.07 1.03,0.12 2.04,-0.13 1.45,-0.37 2.01,-0.97 2.99,-1.73 0.27,-0.22 0.33,-0.39 0.58,-0.65 0.18,-0.18 0.44,-0.46 0.5,-0.72 0.58,0 8.08,0.08 8.44,-0.04 0.22,-0.07 0.56,-0.42 0.56,-0.66l0 -11.27c0,-0.43 -0.35,-0.78 -0.78,-0.78l-5.33 0c-0.89,0 -0.88,0.91 -0.88,1.57 -2.01,0 -3.19,-0.33 -3.32,1.14 -1.72,-0.04 -3.82,-1.6 -5.38,-2.39 -3.71,-1.88 -5.19,-2.69 -9.13,-1.21 -0.43,0.16 -2.88,1.06 -3.13,1.06 -0.27,0 -2.88,-3.14 -3.41,-3.14l-0.35 0c-0.4,0 -4.24,4.01 -4.78,4.56 -1.58,1.58 -3.1,3.1 -4.68,4.68 -1.7,1.7 -1.3,1.44 2.27,5.02l12.85 12.84c1.63,1.64 1.58,1.25 3.88,-1.05l4.72 -4.72c0.56,-0.56 1.97,-1.83 2.34,-2.38z"/>
    <path class="fil2" d="M483.45 1129.54l3.41 0 0 9.17 -3.41 0 0 -9.17zm20.18 12.58l-0.91 0c-0.48,-0.03 -0.98,-0.12 -1.54,-0.26 -1.39,-0.37 -5.05,-2.37 -6.38,-3.15 -0.33,-0.19 -0.9,-0.48 -1.29,-0.62 -0.9,-0.33 -1.18,-0.19 -1.5,-0.34 -0.03,1.48 -1.26,1.13 -3.32,1.13 0,0.77 0.07,1.67 -1.13,1.67l-4.64 0c-0.66,0 -1.22,-0.23 -1.22,-0.88l0 -11.09c0,-0.42 0.25,-0.66 0.53,-0.78 0.49,-0.21 7.77,-0.1 8.47,-0.1 0.4,-0.75 1.32,-1.61 2.01,-2.1 1.49,-1.05 2.39,-1.13 4.02,-1.13 1.62,0 3.56,1 4.65,2.16 0.39,0.41 0.18,0.35 0.77,0.54l5.95 2.01c1.18,0.39 2.5,1.32 2.78,2.54l3.9 -1.08c2.36,-0.67 4.54,-1.7 6.35,0.1 1.09,1.09 1.38,2.76 0.58,4.12 -0.64,1.11 -1.72,1.74 -2.93,2.14l-10.03 3.6c-0.45,0.17 -0.89,0.31 -1.29,0.46 -1.43,0.53 -2.56,0.97 -3.83,1.06zm-14.94 -12.58l1.49 0 0 7.6 -1.49 0 0 -7.6zm18.87 6.72c1.41,0 2.55,-0.78 3.1,-1.87 0.11,-0.22 0.18,-0.52 0.28,-0.69 0.16,-0.3 0.8,-0.38 1.46,-0.55 1.3,-0.32 5.21,-1.6 6.43,-1.6 1.5,0 2.07,2.09 0.84,3.02 -0.95,0.72 -6.36,2.46 -7.84,2.99 -1.29,0.47 -6.74,2.58 -8.02,2.73 -2.2,0.26 -4.05,-0.99 -6,-1.96 -1.93,-0.95 -3.53,-2.33 -5.8,-2.33l0 -6.99c0,-0.29 2.34,-3.92 6.17,-2.41 0.59,0.23 1.11,0.53 1.54,0.91 1.46,1.29 -0.1,0.7 3.11,1.78 0.73,0.24 4.9,1.61 5.43,1.91 1.44,0.83 1.4,3.23 -0.87,3.23 -0.6,0 -7.85,-2.53 -8.3,-2.53 -0.56,0 -0.92,0.42 -0.94,0.88 -0.01,0.22 0.11,0.47 0.24,0.6 0.15,0.16 0.41,0.26 0.62,0.34l2.8 0.87c1.06,0.33 4.71,1.67 5.75,1.67z"/>
    <path class="fil2" d="M511.32 1109.01c0,1.25 1.74,1.23 1.78,0.07 0.05,-1.24 -1.78,-1.2 -1.78,-0.07z"/>
    <path class="fil2" d="M495.85 1132.68c1.26,0 1.33,-1.75 0,-1.75 -1.09,0 -1.06,1.75 0,1.75z"/>
   </g>
  </g>
 </g>
</svg>
