<?xml version="1.0" encoding="UTF-8"?>
<!DOCTYPE svg PUBLIC "-//W3C//DTD SVG 1.1//EN" "http://www.w3.org/Graphics/SVG/1.1/DTD/svg11.dtd">
<!-- Creator: CorelDRAW 2020 (64-Bit) -->
<svg xmlns="http://www.w3.org/2000/svg" xml:space="preserve" width="3508px" height="2480px" version="1.1" style="shape-rendering:geometricPrecision; text-rendering:geometricPrecision; image-rendering:optimizeQuality; fill-rule:evenodd; clip-rule:evenodd"
viewBox="0 0 3508 2480.4"
 xmlns:xlink="http://www.w3.org/1999/xlink"
 xmlns:xodm="http://www.corel.com/coreldraw/odm/2003">
 <defs>
  <style type="text/css">
   <![CDATA[
    .fil2 {fill:white}
    .fil1 {fill:white;fill-rule:nonzero}
    .fil0 {fill:url(#id0)}
   ]]>
  </style>
  <linearGradient id="id0" gradientUnits="userSpaceOnUse" x1="678.57" y1="1092.49" x2="756.23" y2="1069.4">
   <stop offset="0" style="stop-opacity:1; stop-color:#000066"/>
   <stop offset="1" style="stop-opacity:1; stop-color:#00CCFF"/>
  </linearGradient>
 </defs>
 <g id="Layer_x0020_1">
  <metadata id="CorelCorpID_0Corel-Layer"/>
  <rect class="fil0" x="678.28" y="1085.23" width="46.72" height="10.64" rx="1.04" ry="0.87"/>
  <g id="_1593769813040">
   <polygon class="fil1" points="695.7,1091.95 696.41,1091.95 696.41,1089.01 695.7,1089.01 695.7,1090.16 694.59,1090.16 694.59,1089.01 693.87,1089.01 693.87,1091.95 694.59,1091.95 694.59,1090.74 695.7,1090.74 "/>
   <path id="1" class="fil1" d="M699.21 1090.78c0,-0.74 -0.53,-1.2 -1.21,-1.2 -0.68,0 -1.21,0.46 -1.21,1.2 0,0.74 0.51,1.2 1.2,1.2 0.69,0 1.22,-0.46 1.22,-1.2zm-1.7 0c0,-0.4 0.23,-0.58 0.49,-0.58 0.25,0 0.48,0.18 0.48,0.58 0,0.39 -0.24,0.58 -0.49,0.58 -0.26,0 -0.48,-0.19 -0.48,-0.58z"/>
   <polygon id="2" class="fil1" points="699.98,1091.95 700.77,1091.95 701.15,1090.44 701.52,1091.95 702.31,1091.95 702.94,1089.62 702.26,1089.62 701.94,1091.28 701.54,1089.62 700.79,1089.62 700.39,1091.28 700.06,1089.62 699.35,1089.62 "/>
   <polygon id="3" class="fil1" points="703.94,1089.59 704.71,1089.59 704.71,1091.95 705.43,1091.95 705.43,1089.59 706.21,1089.59 706.21,1089.01 703.94,1089.01 "/>
   <path id="4" class="fil1" d="M708.85 1090.78c0,-0.74 -0.53,-1.2 -1.21,-1.2 -0.68,0 -1.22,0.46 -1.22,1.2 0,0.74 0.52,1.2 1.21,1.2 0.68,0 1.22,-0.46 1.22,-1.2zm-1.7 0c0,-0.4 0.23,-0.58 0.49,-0.58 0.25,0 0.48,0.18 0.48,0.58 0,0.39 -0.24,0.58 -0.49,0.58 -0.26,0 -0.48,-0.19 -0.48,-0.58z"/>
   <path id="5" class="fil1" d="M712.25 1091.07c0,-0.98 -1.45,-0.75 -1.45,-1.26 0,-0.18 0.13,-0.27 0.3,-0.27 0.19,0.01 0.32,0.12 0.34,0.31l0.77 0c-0.03,-0.56 -0.46,-0.88 -1.1,-0.88 -0.61,0 -1.07,0.31 -1.07,0.87 -0.01,1.04 1.46,0.75 1.46,1.29 0,0.17 -0.13,0.27 -0.34,0.27 -0.2,0 -0.35,-0.1 -0.37,-0.33l-0.76 0c0.02,0.59 0.52,0.91 1.15,0.91 0.68,0 1.07,-0.41 1.07,-0.91z"/>
   <path id="6" class="fil1" d="M713.71 1090.16c0.24,0 0.44,0.14 0.44,0.4l-0.89 0c0.04,-0.26 0.22,-0.4 0.45,-0.4zm1.12 1.01l-0.76 0c-0.06,0.13 -0.17,0.23 -0.37,0.23 -0.23,0 -0.42,-0.14 -0.45,-0.45l1.62 0c0.01,-0.07 0.01,-0.14 0.01,-0.21 0,-0.71 -0.48,-1.16 -1.16,-1.16 -0.69,0 -1.18,0.46 -1.18,1.2 0,0.74 0.5,1.2 1.18,1.2 0.58,0 1,-0.35 1.11,-0.81z"/>
   <polygon id="7" class="fil1" points="715.26,1091.95 715.98,1091.95 715.98,1088.85 715.26,1088.85 "/>
   <polygon id="8" class="fil1" points="716.49,1091.95 717.21,1091.95 717.21,1088.85 716.49,1088.85 "/>
   <g>
    <path class="fil2" d="M684.23 1087.8l0 0.38 0.9 0c0.04,0 0.03,0.04 0.04,0.09l0.47 2.71c0.02,0.15 0.05,0.32 0.08,0.48 0.03,0.17 0.02,0.31 0.24,0.31l3.88 0c0.12,0 0.2,-0.02 0.27,-0.08 0.17,-0.12 0.13,-0.36 0.13,-0.61l-3.9 0c0,-0.04 -0.07,-0.45 -0.08,-0.47l2.43 0c0.45,0 0.77,0.07 1.08,-0.13 0.34,-0.23 0.35,-0.51 0.41,-0.83l0.23 -1.4 -4.52 0c-0.05,0 -0.05,-0.06 -0.06,-0.17l-0.1 -0.59 -1.07 0c-0.14,0 -0.21,0.02 -0.29,0.08 -0.06,0.04 -0.14,0.13 -0.14,0.23z"/>
    <path class="fil2" d="M688.39 1092.72c0,0.15 0.03,0.28 0.12,0.39 0.07,0.08 0.14,0.15 0.25,0.19 0.15,0.06 0.32,0.07 0.46,-0.01 0.07,-0.03 0.12,-0.07 0.17,-0.12 0.35,-0.37 0.12,-0.96 -0.4,-0.99 -0.31,-0.02 -0.6,0.26 -0.6,0.54z"/>
    <path class="fil2" d="M686.37 1092.76c0,0.16 0.08,0.32 0.16,0.4 0.27,0.26 0.65,0.24 0.88,-0.04 0.15,-0.17 0.17,-0.44 0.06,-0.63 -0.08,-0.13 -0.16,-0.22 -0.3,-0.28 -0.43,-0.15 -0.8,0.18 -0.8,0.55z"/>
   </g>
  </g>
 </g>
</svg>
