<svg height="487pt" viewBox="0 -17 487.912 487" width="487pt" xmlns="http://www.w3.org/2000/svg"><path d="m446.46875 4.457031h-131.039062c-20.679688 0-37.441407 16.761719-37.441407 37.4375v104.832031c0 20.679688 16.761719 37.441407 37.441407 37.441407h39.113281c1.910156.195312 3.851562.300781 5.8125.300781h18.746093c-.003906 11.046875-4.097656 26.480469-25.976562 30.050781-2.171875.355469-2.671875 3.261719-.746094 4.324219 25.363282 13.972656 57.238282 4.707031 71.191406-20.699219l7.574219-13.789062c.746094-.042969 1.484375-.113281 2.222657-.1875h13.097656c20.679687 0 37.441406-16.761719 37.441406-37.441407v-104.832031c0-20.675781-16.761719-37.4375-37.4375-37.4375zm0 0" fill="#f9a7a7"/><path d="m410.933594 106.148438c5.835937-6.371094 9.394531-14.859376 9.394531-24.183594 0-19.785156-16.039063-35.828125-35.828125-35.828125s-35.828125 16.042969-35.828125 35.828125c0 9.324218 3.558594 17.8125 9.394531 24.183594h-.089844c5.925782 7.015624 9.503907 16.074218 9.503907 25.976562 0 .601562-.019531 1.199219-.042969 1.792969h34.125c-.027344-.59375-.046875-1.191407-.046875-1.792969 0-9.902344 3.582031-18.960938 9.507813-25.976562zm0 0" fill="#ffea92"/><path d="m411.472656 49.472656.148438.148438c2.058594 2.058594 5.394531 2.058594 7.449218 0l11.550782-11.550782c2.058594-2.054687 2.058594-5.390624 0-7.449218l-.148438-.148438c-2.058594-2.058594-5.394531-2.058594-7.453125 0l-11.546875 11.546875c-2.058594 2.058594-2.058594 5.394531 0 7.453125zm0 0" fill="#ffea92"/><path d="m385.046875 39.007812h-.195313c-2.914062 0-5.277343-2.363281-5.277343-5.28125v-16.386718c0-2.914063 2.363281-5.28125 5.277343-5.28125h.195313c2.914063 0 5.277344 2.363281 5.277344 5.28125v16.386718c0 2.917969-2.363281 5.28125-5.277344 5.28125zm0 0" fill="#ffea92"/><path d="m358.875 49.472656-.148438.148438c-2.058593 2.058594-5.394531 2.058594-7.453124 0l-11.546876-11.550782c-2.058593-2.054687-2.058593-5.390624 0-7.449218l.148438-.148438c2.058594-2.058594 5.394531-2.058594 7.449219 0l11.550781 11.546875c2.058594 2.058594 2.058594 5.394531 0 7.453125zm0 0" fill="#ffea92"/><path d="m423.464844 65.050781v-.207031c0-2.910156 2.359375-5.273438 5.269531-5.273438h16.332031c2.910156 0 5.273438 2.363282 5.273438 5.273438v.207031c0 2.910157-2.363282 5.269531-5.273438 5.269531h-16.332031c-2.910156 0-5.269531-2.359374-5.269531-5.269531zm0 0" fill="#ffea92"/><path d="m319.558594 65.050781v-.207031c0-2.910156 2.363281-5.273438 5.269531-5.273438h16.332031c2.910156 0 5.273438 2.363282 5.273438 5.273438v.207031c0 2.910157-2.363282 5.269531-5.273438 5.269531h-16.332031c-2.90625 0-5.269531-2.359374-5.269531-5.269531zm0 0" fill="#ffea92"/><path d="m402.242188 144.664062h-35.484376c-1.085937 0-1.964843-.875-1.964843-1.960937v-6.824219c0-1.082031.878906-1.960937 1.964843-1.960937h35.484376c1.085937 0 1.964843.878906 1.964843 1.960937v6.824219c0 1.085937-.878906 1.960937-1.964843 1.960937zm0 0" fill="#a4c9ff"/><path d="m399.3125 155.414062h-28.726562c-1.714844 0-3.105469-1.386718-3.105469-3.101562v-7.644531h34.933593v7.644531c0 1.714844-1.386718 3.101562-3.101562 3.101562zm0 0" fill="#a4c9ff"/><path d="m388.53125 169.746094h-7.164062c-5.9375 0-10.75-4.808594-10.75-10.746094v-3.582031h28.664062v3.582031c0 5.933594-4.8125 10.746094-10.75 10.746094zm0 0" fill="#a4c9ff"/><path d="m380.285156 64.785156c.269532-.515625.679688-.96875 1.175782-1.28125 4.445312-2.832031 9.035156.15625 9.035156 4.4375 0 3.113282-2.433594 5.542969-5.46875 5.542969-4.121094.003906-7.042969-4.242187-4.742188-8.699219zm4.332032 14.25h.660156c2.210937 0 4 1.789063 4 4v33.867188c0 2.210937-1.789063 4-4 4h-.660156c-2.210938 0-4-1.789063-4-4v-33.867188c0-2.210937 1.789062-4 4-4zm0 0" fill="#4671c6"/><path d="m93.6875 326.371094v30.746094c0 2.429687.824219 4.792968 2.332031 6.699218l40.515625 51.199219c2.863282 3.617187 8.34375 3.644531 11.246094.054687l41.382812-51.230468c1.554688-1.921875 2.398438-4.316406 2.398438-6.785156v-29.996094c-14.484375 7.417968-30.898438 11.605468-48.292969 11.605468-17.914062 0-34.78125-4.457031-49.582031-12.292968zm0 0" fill="#f9cfcf"/><path d="m170.742188 387.871094c-7.9375 5.652344-17.628907 9-28.117188 9s-20.175781-3.347656-28.113281-9h-72.957031c-9.976563 12.730468-15.929688 28.761718-15.929688 46.191406v15.007812h237.601562v-15.007812c0-17.433594-5.964843-33.460938-15.945312-46.191406zm0 0" fill="#e0ebfc"/><path d="m241.132812 256.566406h-7.480468c-16.316406 0-29.546875-13.226562-29.546875-29.546875v-81.878906c0-16.316406 13.230469-29.546875 29.546875-29.546875h7.480468c16.320313 0 29.550782 13.226562 29.550782 29.546875v81.878906c0 16.316407-13.230469 29.546875-29.550782 29.546875zm0 0" fill="#4671c6"/><path d="m51.078125 255.710938h-7.480469c-16.316406 0-29.546875-13.226563-29.546875-29.546876v-81.875c0-16.320312 13.226563-29.550781 29.546875-29.550781h7.480469c16.316406 0 29.546875 13.230469 29.546875 29.550781v81.875c0 16.320313-13.226562 29.546876-29.546875 29.546876zm0 0" fill="#4671c6"/><path d="m241.777344 260.566406h-7.480469c-18.496094 0-33.542969-15.046875-33.542969-33.546875v-81.878906c0-18.5 15.046875-33.546875 33.542969-33.546875h7.480469c18.5 0 33.546875 15.046875 33.546875 33.546875v81.878906c0 18.496094-15.046875 33.546875-33.546875 33.546875zm-7.480469-140.972656c-14.085937 0-25.542969 11.460938-25.542969 25.546875v81.878906c0 14.085938 11.457032 25.542969 25.542969 25.542969h7.480469c14.085937 0 25.546875-11.457031 25.546875-25.542969v-81.878906c0-14.085937-11.460938-25.546875-25.546875-25.546875zm0 0" fill="#3762cc"/><path d="m51.722656 259.710938h-7.480468c-18.496094 0-33.542969-15.046876-33.542969-33.546876v-81.875c0-18.5 15.046875-33.546874 33.542969-33.546874h7.480468c18.5 0 33.546875 15.046874 33.546875 33.546874v81.875c0 18.5-15.046875 33.546876-33.546875 33.546876zm-7.480468-140.972657c-14.085938 0-25.542969 11.460938-25.542969 25.546875v81.878906c0 14.085938 11.457031 25.546876 25.542969 25.546876h7.480468c14.085938 0 25.546875-11.460938 25.546875-25.546876v-81.875c0-14.085937-11.460937-25.546874-25.546875-25.546874h-7.480468zm0 0" fill="#3762cc"/><path d="m249.496094 192.0625c-.222656 0-.445313.03125-.671875.035156v-10.035156c0-58.652344-47.546875-106.199219-106.199219-106.199219s-106.199219 47.546875-106.199219 106.199219v10.035156c-.226562-.003906-.445312-.035156-.671875-.035156-17.894531 0-32.398437 14.507812-32.398437 32.402344 0 17.894531 14.503906 32.398437 32.398437 32.398437 1.175782 0 2.335938-.070312 3.476563-.191406 10.960937 46.980469 53.074219 81.992187 103.394531 81.992187s92.433594-35.011718 103.394531-81.992187c1.140625.121094 2.296875.191406 3.472657.191406 17.894531 0 32.402343-14.503906 32.402343-32.398437.003907-17.894532-14.503906-32.402344-32.398437-32.402344zm0 0" fill="#f9cfcf"/><g fill="#3762cc"><path d="m86.5625 228.71875c-5.964844 0-10.800781-4.835938-10.800781-10.796875v-18c0-5.964844 4.835937-10.800781 10.800781-10.800781s10.800781 4.835937 10.800781 10.800781v18c0 5.960937-4.835937 10.796875-10.800781 10.796875zm0 0"/><path d="m198.691406 228.71875c-5.964844 0-10.800781-4.835938-10.800781-10.796875v-18c0-5.964844 4.835937-10.800781 10.800781-10.800781 5.960938 0 10.796875 4.835937 10.796875 10.800781v18c0 5.960937-4.835937 10.796875-10.796875 10.796875zm0 0"/><path d="m143.796875 287.339844c-15.425781 0-27.976563-11.355469-27.976563-25.3125 0-2.210938 1.792969-4 4-4 2.207032 0 4 1.789062 4 4 0 9.542968 8.960938 17.3125 19.976563 17.3125 11.011719 0 19.972656-7.769532 19.972656-17.3125 0-2.210938 1.792969-4 4-4s4 1.789062 4 4c0 13.957031-12.546875 25.3125-27.972656 25.3125zm0 0"/><path d="m143.269531 342.664062c-50.355469 0-93.660156-33.464843-106.472656-81.800781-20.289063.152344-36.796875-16.195312-36.796875-36.398437 0-18.949219 14.554688-34.5625 33.070312-36.25v-6.152344c0-60.761719 49.4375-110.199219 110.203126-110.199219 60.765624 0 110.199218 49.4375 110.199218 110.199219v6.152344c18.519532 1.6875 33.070313 17.300781 33.070313 36.25 0 20.207031-16.59375 36.554687-36.796875 36.398437-12.8125 48.335938-56.121094 81.800781-106.476563 81.800781zm-103.390625-89.992187c1.839844 0 3.464844 1.265625 3.890625 3.09375 10.835938 46.453125 51.753907 78.898437 99.5 78.898437 47.75 0 88.664063-32.445312 99.5-78.898437.457031-1.96875 2.339844-3.285156 4.320313-3.070313 1.070312.113282 2.066406.167969 3.050781.167969 15.660156 0 28.398437-12.738281 28.398437-28.398437 0-15.652344-12.726562-28.386719-28.375-28.402344-.277343.023438-.441406.03125-.609374.035156-1.085938.023438-2.117188-.386718-2.882813-1.140625-.769531-.75-1.203125-1.78125-1.203125-2.859375v-10.035156c0-56.351562-45.847656-102.199219-102.203125-102.199219s-102.199219 45.847657-102.199219 102.199219v10.035156c0 1.078125-.433594 2.105469-1.203125 2.859375-.769531.75-1.800781 1.164063-2.882812 1.140625-.171875-.003906-.339844-.015625-.507813-.027344-.003906 0-.007812 0-.011718 0-15.734376 0-28.46875 12.738282-28.46875 28.394532 0 15.660156 12.742187 28.398437 28.402343 28.398437.984375 0 1.980469-.054687 3.050781-.167969.148438-.015624.292969-.023437.433594-.023437zm0 0"/><path d="m87.207031 228.71875c-5.964843 0-10.800781-4.835938-10.800781-10.796875v-18c0-5.964844 4.835938-10.800781 10.800781-10.800781 5.964844 0 10.800781 4.835937 10.800781 10.800781v18c0 5.960937-4.835937 10.796875-10.800781 10.796875zm0 0"/><path d="m199.335938 228.71875c-5.964844 0-10.800782-4.835938-10.800782-10.796875v-18c0-5.964844 4.835938-10.800781 10.800782-10.800781 5.960937 0 10.796874 4.835937 10.796874 10.800781v18c0 5.960937-4.832031 10.796875-10.796874 10.796875zm0 0"/><path d="m144.441406 287.339844c-15.425781 0-27.976562-11.355469-27.976562-25.3125 0-2.210938 1.792968-4 4-4 2.207031 0 4 1.789062 4 4 0 9.542968 8.960937 17.3125 19.976562 17.3125 11.011719 0 19.972656-7.769532 19.972656-17.3125 0-2.210938 1.792969-4 4-4 2.207032 0 4 1.789062 4 4 0 13.957031-12.546874 25.3125-27.972656 25.3125zm0 0"/></g><path d="m233 42.515625h-18.246094c-14.441406 0-26.953125 8.640625-33.1875 21.285156-.976562 1.980469-3.613281 2.023438-4.660156.085938-5.78125-10.726563-16.628906-18.140625-29.230469-18.792969-76.9375-2.214844-122.804687-20.988281-137.394531-28.003906-2.378906-1.144532-5.097656.660156-5.097656 3.367187v75.550781c0 27.796876 21.855468 50.328126 48.8125 50.328126h70.808594c20.808593 0 38.960937-11.589844 48.789062-28.839844 1.210938-2.128906 4.230469-1.558594 4.835938.839844 3.71875 14.742187 16.449218 25.601562 31.59375 25.601562h54.722656c7.75 0 14.035156-6.632812 14.035156-14.8125v-38.300781c0-26.679688-20.496094-48.308594-45.78125-48.308594zm0 0" fill="#4671c6"/><path d="m125.449219 150.339844h-70.808594c-29.121094 0-52.8125-24.375-52.8125-54.332032v-75.550781c0-2.691406 1.347656-5.144531 3.601563-6.5625 2.191406-1.378906 4.898437-1.535156 7.230468-.414062 15.761719 7.582031 60.542969 25.449219 135.777344 27.617187 12.964844.671875 24.492188 7.605469 31.371094 18.699219 7.457031-13.191406 20.878906-21.28125 35.59375-21.28125h18.246094c27.449218 0 49.78125 23.464844 49.78125 52.308594v38.304687c0 10.375-8.089844 18.8125-18.039063 18.8125h-54.71875c-15.65625 0-29.5-10.429687-34.621094-25.707031-11.15625 17.410156-30.261719 28.105469-50.601562 28.105469zm-115.621094-129.34375v75.015625c0 25.542969 20.105469 46.328125 44.8125 46.328125h70.808594c18.523437 0 35.886719-10.277344 45.3125-26.816406 1.339843-2.351563 3.910156-3.640626 6.550781-3.28125 2.734375.371093 4.949219 2.382812 5.636719 5.121093 3.355469 13.292969 14.753906 22.582031 27.714843 22.582031h54.722657c5.535156 0 10.039062-4.851562 10.039062-10.8125v-38.308593c0-24.433594-18.742187-44.308594-41.785156-44.308594h-18.246094c-12.457031 0-23.800781 7.300781-29.601562 19.054687-1.113281 2.265626-3.34375 3.699219-5.8125 3.742188-2.4375.039062-4.753907-1.304688-5.953125-3.527344-5.332032-9.886718-15.023438-16.128906-25.917969-16.695312-75.695313-2.179688-121.515625-20.128906-138.28125-28.09375zm0 0" fill="#3762cc"/><path d="m267.980469 137.671875c0 26.839844-21.757813 48.601563-48.597657 48.601563-26.84375 0-48.601562-21.761719-48.601562-48.601563s21.757812-48.601563 48.601562-48.601563c26.839844 0 48.597657 21.761719 48.597657 48.601563zm0 0" fill="#ffea92"/><path d="m253.582031 137.671875c0 18.886719-15.3125 34.199219-34.199219 34.199219-18.890624 0-34.199218-15.3125-34.199218-34.199219s15.308594-34.199219 34.199218-34.199219c18.886719 0 34.199219 15.3125 34.199219 34.199219zm0 0" fill="#6bdddd"/><path d="m272.996094 120.570312h-8.117188c2 5.320313 3.101563 11.082032 3.101563 17.101563 0 6.703125-1.359375 13.089844-3.8125 18.898437h8.828125c3.195312 0 5.785156-2.589843 5.785156-5.78125v-24.433593c0-3.195313-2.589844-5.785157-5.785156-5.785157zm0 0" fill="#e0ebfc"/><path d="m173.882812 120.570312h-162.917968c-3.195313 0-5.785156 2.589844-5.785156 5.785157v24.433593c0 3.195313 2.589843 5.785157 5.785156 5.785157h163.628906c-2.453125-5.808594-3.8125-12.195313-3.8125-18.898438 0-6.023437 1.101562-11.785156 3.101562-17.105469zm0 0" fill="#e0ebfc"/><path d="m220.027344 190.273438c-29.003906 0-52.601563-23.597657-52.601563-52.601563s23.597657-52.601563 52.601563-52.601563 52.597656 23.597657 52.597656 52.601563-23.59375 52.601563-52.597656 52.601563zm0-97.203126c-24.59375 0-44.601563 20.007813-44.601563 44.601563s20.007813 44.601563 44.601563 44.601563c24.589844 0 44.597656-20.007813 44.597656-44.601563s-20.007812-44.601563-44.597656-44.601563zm0 0" fill="#3762cc"/><path d="m220.027344 175.871094c-21.0625 0-38.203125-17.136719-38.203125-38.199219s17.136719-38.199219 38.203125-38.199219c21.0625 0 38.199218 17.136719 38.199218 38.199219s-17.136718 38.199219-38.199218 38.199219zm0-68.398438c-16.652344 0-30.203125 13.546875-30.203125 30.199219s13.546875 30.199219 30.203125 30.199219c16.652344 0 30.199218-13.546875 30.199218-30.199219s-13.546874-30.199219-30.199218-30.199219zm0 0" fill="#3762cc"/><path d="m273.644531 160.570312h-8.832031c-1.339844 0-2.589844-.671874-3.332031-1.789062-.742188-1.117188-.875-2.53125-.351563-3.765625 2.320313-5.492187 3.496094-11.324219 3.496094-17.34375 0-5.390625-.957031-10.667969-2.84375-15.691406-.460938-1.226563-.292969-2.605469.453125-3.683594.75-1.082031 1.976563-1.722656 3.292969-1.722656h8.117187c5.394531 0 9.785157 4.386719 9.785157 9.785156v24.433594c-.003907 5.390625-4.390626 9.777343-9.785157 9.777343zm-3.15625-8h3.15625c.980469 0 1.785157-.796874 1.785157-1.78125v-24.433593c0-.984375-.800782-1.785157-1.785157-1.785157h-2.667969c1.09375 4.265626 1.648438 8.648438 1.648438 13.101563 0 5.097656-.71875 10.089844-2.136719 14.898437zm0 0" fill="#3762cc"/><path d="m175.238281 160.570312h-163.628906c-5.394531 0-9.785156-4.386718-9.785156-9.78125v-24.433593c0-5.394531 4.390625-9.785157 9.785156-9.785157h162.917969c1.3125 0 2.542968.644532 3.289062 1.722657s.917969 2.453125.457032 3.683593c-1.886719 5.023438-2.84375 10.300782-2.84375 15.691407 0 6.019531 1.175781 11.851562 3.496093 17.34375.523438 1.234375.386719 2.648437-.351562 3.765625-.742188 1.121094-1.992188 1.792968-3.335938 1.792968zm-163.628906-36c-.980469 0-1.785156.800782-1.785156 1.785157v24.433593c0 .984376.800781 1.785157 1.785156 1.785157h157.957031c-1.421875-4.808594-2.136718-9.800781-2.136718-14.898438 0-4.453125.550781-8.835937 1.648437-13.101562h-157.46875zm0 0" fill="#3762cc"/><path d="m147.78125 415.070312c-2.902344 3.589844-8.382812 3.5625-11.246094-.054687l-40.515625-51.199219c-1.03125-1.300781-1.714843-2.828125-2.058593-4.433594-38.296876 3.375-68.332032 35.511719-68.332032 74.683594v15.007813h237.597656v-15.007813c0-40.375-31.910156-73.285156-71.882812-74.914062zm0 0" fill="#a4c9ff"/><path d="m263.226562 453.070312h-237.601562c-2.207031 0-4-1.789062-4-4v-15.007812c0-39.910156 28.992188-72.871094 68.0625-78.222656v-29.46875c0-1.40625.734375-2.707032 1.9375-3.425782 1.199219-.726562 2.695312-.765624 3.933594-.109374 14.617187 7.738281 31.117187 11.828124 47.710937 11.828124 16.367188 0 32-3.753906 46.472657-11.164062 1.234374-.632812 2.71875-.578125 3.90625.148438 1.191406.726562 1.914062 2.015624 1.914062 3.410156v28.363281c40.503906 3.699219 71.660156 37.492187 71.660156 78.640625v15.007812c.003906 2.210938-1.789062 4-3.996094 4zm-233.601562-8h229.601562v-11.007812c0-38.207031-29.890624-69.359375-68.046874-70.914062-2.207032-.089844-3.921876-1.953126-3.832032-4.160157.015625-.457031.113282-.894531.269532-1.296875-.03125-.207031-.050782-.417968-.050782-.636718v-23.660157c-13.953125 6.15625-28.820312 9.269531-44.292968 9.269531-15.707032 0-31.335938-3.394531-45.582032-9.871093v24.324219c0 .398437.054688.855468.179688 1.429687.242187 1.125-.007813 2.292969-.691406 3.21875-.683594.921875-1.722657 1.507813-2.871094 1.609375-36.269532 3.191406-64.679688 34.242188-64.679688 70.691406v11.003906zm0 0" fill="#3762cc"/><path d="m179.480469 411.753906c-4.269531 0-7.730469-3.460937-7.730469-7.730468v-3.34375c0-4.273438 3.460938-7.730469 7.730469-7.730469s7.730469 3.457031 7.730469 7.730469v3.34375c0 4.269531-3.464844 7.730468-7.730469 7.730468zm0 0" fill="#4671c6"/><path d="m228.816406 411.753906c4.273438 0 7.730469-3.460937 7.730469-7.730468v-3.34375c0-4.273438-3.457031-7.730469-7.730469-7.730469-4.269531 0-7.726562 3.457031-7.726562 7.730469v3.34375c0 4.269531 3.460937 7.730468 7.726562 7.730468zm0 0" fill="#4671c6"/><path d="m194.273438 398.289062c-4.269532 0-7.730469-3.460937-7.730469-7.730468v-3.34375c0-4.269532 3.460937-7.730469 7.730469-7.730469 4.269531 0 7.730468 3.460937 7.730468 7.730469v3.34375c0 4.269531-3.460937 7.730468-7.730468 7.730468zm0 0" fill="#4671c6"/><path d="m213.605469 398.289062c4.269531 0 7.730469-3.460937 7.730469-7.730468v-3.34375c0-4.269532-3.460938-7.730469-7.730469-7.730469s-7.730469 3.460937-7.730469 7.730469v3.34375c0 4.269531 3.464844 7.730468 7.730469 7.730468zm0 0" fill="#4671c6"/><path d="m219.335938 412.695312c-.683594-.164062-1.160157-.710937-1.160157-1.339843 0-6.851563-6.28125-12.402344-14.027343-12.402344-7.75 0-14.027344 5.554687-14.027344 12.402344 0 .625-.476563 1.175781-1.160156 1.339843-5.914063 1.398438-10.269532 6.164063-10.269532 11.832032v.304687c0 6.769531 6.203125 12.253907 13.855469 12.253907h23.203125c7.652344 0 13.855469-5.484376 13.855469-12.253907v-.304687c0-5.667969-4.355469-10.433594-10.269531-11.832032zm0 0" fill="#4671c6"/><path d="m377.566406 229.367188c-9.382812 0-18.667968-2.367188-27.113281-7.023438-2.394531-1.316406-3.640625-3.910156-3.175781-6.609375.460937-2.695313 2.507812-4.71875 5.207031-5.164063 13.609375-2.21875 21.128906-9.644531 22.417969-22.101562h-14.542969c-1.996094 0-4.019531-.101562-6.015625-.300781h-38.914062c-22.851563 0-41.441407-18.589844-41.441407-41.441407v-104.832031c0-22.847656 18.589844-41.4375 41.441407-41.4375h131.039062c22.851562 0 41.441406 18.589844 41.441406 41.4375v104.832031c0 22.851563-18.589844 41.441407-41.441406 41.441407h-12.851562l-6.539063 11.902343c-7.269531 13.234376-19.246094 22.835938-33.730469 27.039063-5.203125 1.511719-10.507812 2.257813-15.78125 2.257813zm-18.957031-11.925782c10.261719 4.414063 21.632813 5.140625 32.507813 1.984375 12.429687-3.609375 22.707031-11.847656 28.949218-23.207031l7.574219-13.789062c.660156-1.207032 1.894531-1.988282 3.269531-2.070313.691406-.042969 1.378906-.105469 2.058594-.171875.132812-.015625.269531-.023438.402344-.023438h13.097656c18.4375 0 33.441406-15 33.441406-33.4375v-104.832031c0-18.4375-15.003906-33.4375-33.441406-33.4375h-131.039062c-18.441407 0-33.441407 15-33.441407 33.4375v104.832031c0 18.4375 15 33.441407 33.441407 33.441407h39.113281c.136719 0 .273437.007812.410156.023437 1.792969.183594 3.609375.277344 5.402344.277344h18.746093c1.058594 0 2.078126.421875 2.828126 1.171875s1.171874 1.765625 1.171874 2.828125c-.003906 10.179688-3.320312 27.339844-24.492187 32.972656zm0 0" fill="#3762cc"/></svg>