<svg id="Filled" height="512" viewBox="0 0 512 512" width="512" xmlns="http://www.w3.org/2000/svg"><path d="m312 264h48a32 32 0 0 0 32-32v-48a64 64 0 0 1 64-64 16 16 0 0 1 0 32 31.991 31.991 0 0 0 -32 32v48a64 64 0 0 1 -64 64h-48z" fill="#99a2a7"/><path d="m319.2 144.8a111.689 111.689 0 0 0 -79.2-32.8h-31.893c12.491-23.03 8.861-50.56 0-82.99a5 5 0 0 0 -8.12-3.9l-23.88 22.89h-24l-23.879-22.89a5 5 0 0 0 -8.121 3.9c-8.4 36.21-12.979 67.53 0 90.99-.569 41.01 8.64 71.86 32 88l15.893 56h-8a16 16 0 0 0 -16 16v16h172a36 36 0 0 0 36-36v-36a111.689 111.689 0 0 0 -32.8-79.2z" fill="#c2c5c6"/><path d="m144 488h-48v-80h64z" fill="#684436"/><path d="m368 488h48v-80h-64z" fill="#684436"/><path d="m440 360v80h-368v-80a64 64 0 0 1 64-64h240a64 64 0 0 1 64 64z" fill="#93573d"/><path d="m440 360h-368a64 64 0 0 1 64-64h240a64 64 0 0 1 64 64z" fill="#c2856c"/><path d="m432 232v-48a23.992 23.992 0 0 1 24-24 24 24 0 1 0 0-48 72.081 72.081 0 0 0 -72 72v48a24.028 24.028 0 0 1 -24 24v-32a119.987 119.987 0 0 0 -120-120h-19.791c7.781-23.889 2.811-50.592-4.165-76.293a13 13 0 0 0 -21.059-8.84c-.185.149-.363.3-.533.468l-21.559 20.665h-17.571l-21.559-20.665c-.171-.164-.348-.319-.533-.468a13 13 0 0 0 -21.076 9.033c-7.619 32.949-13.745 67.232-.067 94.057-.274 44.1 10.562 73.894 33.082 90.9l12.283 43.281a24.032 24.032 0 0 0 -21.452 23.862v8a72.081 72.081 0 0 0 -72 72v80a8 8 0 0 0 8 8h16v40a8 8 0 0 0 8 8h48a8 8 0 0 0 7.845-6.431l8.314-41.569h191.682l8.314 41.569a8 8 0 0 0 7.845 6.431h48a8 8 0 0 0 8-8v-40h16a8 8 0 0 0 8-8v-80a72.113 72.113 0 0 0 -48.3-67.974 71.98 71.98 0 0 0 32.3-60.026zm-32 0v-48a56.063 56.063 0 0 1 56-56 8 8 0 0 1 0 16 39.991 39.991 0 0 0 -40 40v48a56.063 56.063 0 0 1 -56 56h-10.084a43.932 43.932 0 0 0 8.407-16h1.677a40.045 40.045 0 0 0 40-40zm-248 48a8.009 8.009 0 0 1 8-8h8a8 8 0 0 0 7.7-10.185l-15.892-56a8.008 8.008 0 0 0 -3.149-4.4c-19.78-13.666-29.119-40.262-28.549-81.307a7.986 7.986 0 0 0 -1-3.984c-10.732-19.4-8.176-45.555-.156-81.158l19.621 18.806a8 8 0 0 0 5.532 2.228h24a8 8 0 0 0 5.536-2.225l19.749-18.929c6.831 25.887 11.043 52.394-.317 73.341a8 8 0 0 0 7.032 11.813h31.893a103.985 103.985 0 0 1 104 104v36a28.032 28.032 0 0 1 -28 28h-108v-88a8 8 0 0 0 -16 0v88h-40zm-14.559 200h-33.441v-32h39.841zm270.559 0h-33.441l-6.4-32h39.841zm-328-48v-64h352v64zm296-128a56.078 56.078 0 0 1 55.419 48h-350.838a56.078 56.078 0 0 1 55.419-48z"/><circle cx="144" cy="88" r="8"/><circle cx="184" cy="88" r="8"/></svg>