<svg id="Capa_1" enable-background="new 0 0 512.043 512.043" height="512" viewBox="0 0 512.043 512.043" width="512" xmlns="http://www.w3.org/2000/svg"><g><path d="m391.708 89.723c10.837-20.051 7.569-45.139-9.193-61.901-16.763-16.764-41.85-20.029-61.901-9.193-35.234-17.776-77.624-23.065-120.484-14.856-46.282 8.865-91.297 33.272-126.752 68.729-35.456 35.456-59.864 80.471-68.729 126.753-8.209 42.858-2.921 85.25 14.855 120.484-10.837 20.05-7.569 45.138 9.194 61.9 16.763 16.764 41.851 20.032 61.9 9.194 24.395 12.308 52.218 18.629 81.253 18.629 12.901 0 26.045-1.249 39.23-3.774 46.282-8.864 91.297-33.272 126.753-68.729 35.456-35.455 59.864-80.47 68.729-126.753 8.21-42.858 2.922-85.249-14.855-120.483z" fill="#f8bd2d"/><path d="m283.745 100.97c-23.613-13.716-55.611-14.812-87.791-3.003l-10.334-28.164c40.582-14.89 81.839-12.985 113.193 5.226z" fill="#ffe04a"/><path d="m496.168 336.442c0 88.7-71.91 160.6-160.61 160.6s-160.6-71.9-160.6-160.6 71.9-160.61 160.6-160.61 160.61 71.91 160.61 160.61z" fill="#f8bd2d"/><path d="m496.168 336.442c0 88.7-71.91 160.6-160.61 160.6v-321.21c88.7 0 160.61 71.91 160.61 160.61z" fill="#fd9d28"/><path d="m335.558 160.832c-96.83 0-175.6 78.78-175.6 175.61s78.77 175.6 175.6 175.6 175.61-78.77 175.61-175.6c0-96.829-78.78-175.61-175.61-175.61zm-112.97 83.86 76.75 76.75h-108.61c2.97-28.92 14.44-55.349 31.86-76.75zm-31.86 106.75h108.62l-76.75 76.75c-17.42-21.409-28.9-47.84-31.87-76.75zm129.84 129.83c-28.92-2.97-55.35-14.44-76.76-31.87l76.76-76.75zm0-181.04-76.76-76.76c21.41-17.42 47.84-28.9 76.76-31.87zm159.83 21.21h-108.62l76.75-76.76c17.42 21.411 28.9 47.84 31.87 76.76zm-129.83-129.84c28.91 2.98 55.34 14.45 76.75 31.87l-76.75 76.75zm0 289.67v-108.61l76.74 76.75c-21.4 17.42-47.83 28.891-76.74 31.86zm97.96-53.08-76.76-76.75h108.63c-2.97 28.91-14.45 55.351-31.87 76.75z" fill="#ffe04a"/><path d="m335.558 160.832v351.21c96.83 0 175.61-78.77 175.61-175.6 0-96.829-78.78-175.61-175.61-175.61zm144.84 160.61h-108.62l76.75-76.76c17.42 21.411 28.9 47.84 31.87 76.76zm-129.83-129.84c28.91 2.98 55.34 14.45 76.75 31.87l-76.75 76.75zm0 289.67v-108.61l76.74 76.75c-21.4 17.42-47.83 28.891-76.74 31.86zm97.96-53.08-76.76-76.75h108.63c-2.97 28.91-14.45 55.351-31.87 76.75z" fill="#ffc239"/></g></svg>