<svg id="Layer_3" enable-background="new 0 0 64 64" height="512" viewBox="0 0 64 64" width="512" xmlns="http://www.w3.org/2000/svg"><g><g><path d="m11.207 54.207-1.415-1.415 3.208-3.207v-8.585c0-.266.105-.52.292-.708l4-4 1.415 1.415-3.708 3.707v8.585c0 .266-.105.52-.292.708z" fill="#674025"/></g><g><path d="m38.142 58.514-3-5c-.215-.358-.184-.812.077-1.139l3.44-4.301-3.367-3.367 1.415-1.415 4 4c.36.36.392.934.074 1.332l-3.565 4.457 2.642 4.404z" fill="#674025"/></g><g><path d="m55.199 55.599-3-4c-.298-.398-.259-.955.093-1.307l4.293-4.292-3.293-3.293 1.415-1.415 4 4c.39.391.39 1.024 0 1.415l-4.387 4.387 2.479 3.306z" fill="#674025"/></g><g><path d="m3.446 26.894-.893-1.79.684-.341c1.704-.852 2.763-2.566 2.763-4.472v-1.291h2v1.292c0 2.668-1.482 5.068-3.869 6.261z" fill="#674025"/></g><g><path d="m2.657 20.999h-.657v-2h.657c.92 0 1.718-.623 1.941-1.514l.432-1.728 1.94.485-.432 1.728c-.446 1.783-2.042 3.029-3.881 3.029z" fill="#674025"/></g><g><path d="m6.706 30.707-1.414-1.415 1.243-1.242c.944-.944 1.464-2.2 1.464-3.535v-6.515h2v6.515c0 1.87-.728 3.627-2.05 4.95z" fill="#674025"/></g><path d="m14 15 10 2v-11c-3.272 0-6.482.889-9.287 2.572l-.713.428" fill="#674025"/><path d="m24 6c5.287-2.631 11.111-4 17.016-4 7.609 0 14.816 3.415 19.635 9.304l1.387 1.696-6.421 6.421c-4.756 4.756-11.516 6.922-18.15 5.817-4.8-.8-9.168-3.256-12.347-6.94l-1.12-1.298" fill="#c18e59"/><path d="m44 25.282v-7.625c0-1.061-.421-2.078-1.172-2.828l-1.228-1.229 2.613-.653c1.17-.292 2.156-.983 2.828-1.906l3.788 3.788c.363.363.649.789.848 1.252v7.18h-1.388c-1.976 1.004-4.099 1.686-6.289 2.021z" fill="#976947"/><path d="m39 11 3.828 3.828c.75.75 1.172 1.768 1.172 2.828v7.625c-2.077.318-4.214.323-6.341-.007h-1.659v-6.618c0-1.061-.421-2.078-1.172-2.828l-2.028-2.028 3.413-.853c1.173-.293 2.161-.987 2.834-1.913z" fill="#c18e59"/><path d="m31 12 3.828 3.828c.75.75 1.172 1.768 1.172 2.828v1.344 4.509h-1.564c-3.61-1.169-6.851-3.309-9.355-6.211l-1.119-1.298.038-2 4.213-1.053c1.173-.293 2.161-.987 2.834-1.913z" fill="#976947"/><path d="m51.676 16.081.536-.134c2.227-.557 3.788-2.557 3.788-4.851v-4.096l.036-.048c-2.423-1.787-5.144-3.127-8.033-3.96l-.003.008v5.096c0 1.086-.35 2.105-.954 2.937l-.046-.033 3.828 3.828c.364.364.65.79.848 1.253z" fill="#674025"/><path d="m39 11 2.6 2.6 2.613-.653c2.226-.557 3.787-2.557 3.787-4.851v-5.096l.002-.008c-2.259-.652-4.622-.992-7.024-.992-.326 0-.652.004-.978.013v-.013 6.096c0 1.086-.35 2.105-.954 2.937z" fill="#442518"/><path d="m31 12 1.8 1.8 3.413-.853c2.226-.557 3.787-2.557 3.787-4.851v-6.096.013c-2.704.069-5.385.425-8 1.058v6.026c0 1.086-.35 2.105-.954 2.937z" fill="#674025"/><g fill="#442518"><path d="m24 15 4.213-1.053c2.226-.557 3.787-2.557 3.787-4.851v-6.026c-2.771.67-5.468 1.651-8.038 2.93z"/><path d="m14 9v6l-6.038 6-1.09-1.09c-1.772-1.772-2.345-4.416-1.465-6.763.935-2.495 3.32-4.147 5.984-4.147z"/><path d="m16 21 .876-7.008c.071-.567.553-.992 1.124-.992.571 0 1.053.425 1.124.992l.876 7.008z"/><path d="m34 28 .876-7.008c.071-.567.553-.992 1.124-.992.571 0 1.053.425 1.124.992l.876 7.008z"/></g><path d="m20 21c1.979 1.979 3.536 4.34 4.576 6.939l.424 1.061-3 2-2.159-1.799c-2.434-2.028-3.841-5.033-3.841-8.201" fill="#674025"/><path d="m25 29c1.118 2.237.277 4.957-1.909 6.172l-4.883 3.036-1.419-1.419 5.211-5.789" fill="#442518"/><path d="m34 28c-1.979 1.979-3.536 4.34-4.576 6.939l-.424 1.061 3 2 2.159-1.799c2.434-2.028 3.841-5.033 3.841-8.201" fill="#674025"/><path d="m29 36c-1.118 2.237-.277 4.957 1.909 6.172l4.884 3.034 1.412-1.412-5.205-5.794" fill="#442518"/><path d="m52 26c-1.979 1.979-3.536 4.34-4.576 6.939l-.424 1.061 3 2c3.802-3.168 6-7.861 6-12.81v-1.19" fill="#674025"/><path d="m47 34c-1.118 2.237-.277 4.957 1.909 6.172l4.883 3.036 1.416-1.416-5.208-5.792" fill="#442518"/><path d="m52 26 4-4-5.845-5.01c-.652-.559-1.624-.521-2.231.086-.541.541-.637 1.384-.231 2.033z" fill="#442518"/><ellipse cx="48" cy="57" fill="#f5cf88" rx="4" ry="2"/><ellipse cx="58" cy="60" fill="#f5cf88" rx="4" ry="2"/></g></svg>