<svg id="Capa_1" enable-background="new 0 0 512 512" height="512" viewBox="0 0 512 512" width="512" xmlns="http://www.w3.org/2000/svg"><g><path d="m203.91 444.906 39.609 60.414c2.783 4.175 7.471 6.68 12.48 6.68s9.697-2.505 12.48-6.68l39.609-60.414c100.563-23.862 172.912-114.931 172.912-218.906 0-124.072-100.928-226-225-226s-225 101.928-225 226c0 103.975 72.349 195.044 172.91 218.906zm-22.91-323.906c31.274 0 58.857 16.025 75 40.298 16.143-24.273 43.726-40.298 75-40.298 49.629 0 90 40.371 90 90 0 113.848-152.915 176.323-159.434 178.931-1.787.717-3.676 1.069-5.566 1.069s-3.779-.352-5.566-1.069c-6.519-2.608-159.434-65.083-159.434-178.931 0-49.629 40.371-90 90-90z"/><path d="m255.985 359.652c26.119-11.792 135.015-65.918 135.015-148.652 0-33.091-26.909-60-60-60s-60 26.909-60 60c0 8.291-6.709 15-15 15s-15-6.709-15-15c0-33.091-26.909-60-60-60s-60 26.909-60 60c0 82.925 108.853 136.89 134.985 148.652z"/></g></svg>