<svg height="512pt" viewBox="0 0 512 512" width="512pt" xmlns="http://www.w3.org/2000/svg" xmlns:xlink="http://www.w3.org/1999/xlink"><linearGradient id="a" gradientTransform="matrix(1 0 0 -1 0 -17294)" gradientUnits="userSpaceOnUse" x1="0" x2="512" y1="-17550" y2="-17550"><stop offset="0" stop-color="#00f38d"/><stop offset="1" stop-color="#009eff"/></linearGradient><path d="m512 256c0 141.386719-114.613281 256-256 256s-256-114.613281-256-256 114.613281-256 256-256 256 114.613281 256 256zm0 0" fill="url(#a)"/><g fill="#fff"><path d="m282.910156 222.367188-12.222656-27.394532c-3.667969 1.636719-7.585938 2.464844-11.644531 2.464844-10.308594 0-19.359375-5.480469-24.40625-13.679688h83.121093v-15c0-32.285156-26.253906-58.5625-58.570312-58.683593h-.222656c-32.316406.121093-58.570313 26.398437-58.570313 58.683593 0 32.355469 26.308594 58.679688 58.648438 58.679688 8.296875 0 16.328125-1.707031 23.867187-5.070312zm-23.835937-82.292969c10.316406.039062 19.371093 5.507812 24.421875 13.683593h-48.84375c5.054687-8.175781 14.109375-13.644531 24.421875-13.683593zm0 0"/><path d="m413.5 197.4375h-9.609375v-84.667969h-30v114.667969h39.609375zm0 0"/><path d="m365.511719 197.4375h-9.609375v-84.667969h-30v114.667969h39.609375zm0 0"/><path d="m218.234375 240.839844v166.601562l44.492187-38.074218 28.34375 59.332031 27.066407-12.933594-27.886719-58.378906 64.753906-6.5625zm30 62.625 30.953125 24.890625-16.648438 1.683593-14.304687 12.242188zm0 0"/><path d="m159.714844 153.757812h-27.070313c-3.769531 0-6.839843-3.070312-6.839843-6.84375 0-3.773437 3.070312-6.839843 6.839843-6.839843h48.296875v-30h-48.296875c-20.3125 0-36.839843 16.527343-36.839843 36.839843 0 20.316407 16.527343 36.84375 36.839843 36.84375h27.070313c3.773437 0 6.84375 3.066407 6.84375 6.839844 0 3.773438-3.070313 6.839844-6.84375 6.839844h-61.214844v30h61.214844c20.316406 0 36.84375-16.527344 36.84375-36.839844 0-20.316406-16.527344-36.839844-36.84375-36.839844zm0 0"/><path d="m98.5 244.195312h97.820312v30h-97.820312zm0 0"/><path d="m298.859375 246.890625v.03125h-40.398437l37.425781 29.9375h2.972656v.03125h118.738281v-30zm0 0"/></g></svg>