<svg id="Layer_1" enable-background="new 0 0 512 512" height="512" viewBox="0 0 512 512" width="512" xmlns="http://www.w3.org/2000/svg"><g><g><path d="m356.718 87.026h-60c-8.284 0-15-6.716-15-15v-57.026c0-8.284 6.716-15 15-15h60c8.284 0 15 6.716 15 15v57.026c0 8.285-6.716 15-15 15z" fill="#b34f03"/></g><path d="m356.718 0h-30v87.026h30c8.284 0 15-6.716 15-15v-57.026c0-8.284-6.716-15-15-15z" fill="#a24603"/><g><path d="m188.342 428.534c-40.208 0-78.873-15.893-107.505-44.526-31.29-31.29-47.368-74.568-44.113-118.737.546-7.415 6.442-13.311 13.857-13.857 44.171-3.254 87.447 12.823 118.737 44.113s47.368 74.567 44.113 118.737c-.546 7.415-6.442 13.311-13.857 13.857-3.75.275-7.502.413-11.232.413z" fill="#00cb75"/></g><g><path d="m125.077 512c-44.25 0-86.221-19.233-115.152-52.768-4.856-5.629-4.856-13.967 0-19.597 28.931-33.535 70.902-52.768 115.152-52.768s86.222 19.233 115.152 52.768c4.857 5.629 4.857 13.967 0 19.597-28.93 33.535-70.901 52.768-115.152 52.768z" fill="#bee75e"/></g><g><path d="m421.447 512h-189.459c-3.108 0-6.139-.965-8.674-2.763-47.336-33.553-75.596-88.179-75.596-146.125 0-65.332 35.601-125.479 92.91-156.97 24.052-13.217 37.847-36.536 37.847-63.977v-70.139c0-8.284 6.716-15 15-15h66.487c8.284 0 15 6.716 15 15v70.139c0 27.442 13.794 50.761 37.847 63.977 57.309 31.491 92.91 91.639 92.91 156.97 0 57.946-28.26 112.572-75.596 146.125-2.538 1.798-5.568 2.763-8.676 2.763z" fill="#fff7cc"/></g><path d="m412.807 206.143c-24.052-13.216-37.847-36.535-37.847-63.977v-70.14c0-8.284-6.716-15-15-15h-33.243v454.974h94.729c3.108 0 6.139-.965 8.674-2.763 47.336-33.553 75.596-88.179 75.596-146.125.001-65.331-35.6-125.478-92.909-156.969z" fill="#ffe6b3"/><path d="m177.718 363.113c0 46.678 22.033 90.771 59.174 118.887h179.651c37.141-28.117 59.174-72.209 59.174-118.887 0-20.688-4.3-40.748-12.242-59.112h-273.516c-7.942 18.364-12.241 38.423-12.241 59.112z" fill="#ffde46"/><g><path d="m373.717 84.106h-93.999c-8.284 0-15-6.716-15-15s6.716-15 15-15h93.999c8.284 0 15 6.716 15 15s-6.716 15-15 15z" fill="#ffe6b3"/></g><path d="m463.476 304h-136.759v178h89.825c37.141-28.117 59.174-72.209 59.174-118.887.001-20.689-4.299-40.748-12.24-59.113z" fill="#ffcd00"/><path d="m373.717 54.106h-47v30h47c8.284 0 15-6.716 15-15s-6.716-15-15-15z" fill="#ffca80"/></g></svg>