<svg id="Layer_1" enable-background="new 0 0 512 512" height="512" viewBox="0 0 512 512" width="512" xmlns="http://www.w3.org/2000/svg"><g><g><g><g><g><g id="XMLID_1828_"><g id="XMLID_1829_"><g id="XMLID_1830_"><g id="XMLID_1831_"><g id="XMLID_1832_"><g id="XMLID_1833_"><g id="XMLID_1834_"><g id="XMLID_1835_"><g id="XMLID_1839_"><g id="XMLID_1840_"><g id="XMLID_1841_"><g id="XMLID_1842_"><g id="XMLID_1843_"><g id="XMLID_1844_"><g id="XMLID_1845_"><circle cx="256" cy="256" fill="#6ba7ff" r="256"/></g></g></g></g></g></g></g></g></g></g></g></g></g></g></g></g></g></g></g><path d="m512 256c0-35.726-7.328-69.738-20.547-100.628l-26.794-26.794-412.364 91.443 33.253 33.372c6.375 51.828 69.64 168.216 69.64 168.216l90.153 90.153c3.537.145 7.087.238 10.659.238 141.385 0 256-114.615 256-256z" fill="#6e75e2"/><g><g><circle cx="95.514" cy="171.821" fill="#e7f9fb" r="64.743"/><circle cx="416.486" cy="171.821" fill="#bcfbff" r="64.743"/></g><path d="m438.597 236.991c-5.621 52.569-26.971 120.137-66.316 167.859-28.812 34.955-67.274 9.202-116.281 9.202s-87.47 25.754-116.281-9.202c-39.345-47.722-60.695-115.29-66.316-167.859-9.739-91.053 105.726-133.83 182.597-133.83s192.336 42.777 182.597 133.83z" fill="#fff"/><path d="m438.6 236.99c-5.62 52.57-26.97 120.14-66.32 167.86-25.8 31.31-59.35 13.92-101.28 9.95-4.88-.47-9.88-.75-15-.75v-310.89c76.87 0 192.34 42.78 182.6 133.83z" fill="#e7f9fb"/><path d="m372.281 404.85c-28.811 34.956-67.274 59.268-116.281 59.268s-87.47-24.313-116.281-59.268c12.745-52.384 59.976-91.271 116.281-91.271s103.537 38.887 116.281 91.271z" fill="#e7f9fb"/><path d="m372.28 404.85c-28.81 34.96-67.27 59.27-116.28 59.27v-150.54c21.84 0 42.3 5.84 59.92 16.06 27.83 16.12 48.56 43.14 56.36 75.21z" fill="#bcfbff"/><g><g><path d="m241 373.507h30v53.008h-30z" fill="#006369"/></g></g><g><path d="m256 373.51h15v53.01h-15z" fill="#08475e"/></g><g><circle cx="191.574" cy="237.752" fill="#08475e" r="21.004"/><circle cx="320.426" cy="237.752" fill="#05303d" r="21.004"/></g><path d="m256 293.128c-30.797 0-62.486 26.683-59.901 39.564 2.584 12.881 42.791 51.526 59.901 51.526s57.317-38.644 59.901-51.526c2.585-12.881-29.104-39.564-59.901-39.564z" fill="#08475e"/><path d="m315.9 332.69c-1.98 9.87-26.06 34.88-44.9 46.02-5.75 3.4-11 5.51-15 5.51v-91.09c28.53 0 57.84 22.9 59.92 36.51.18 1.08.17 2.1-.02 3.05z" fill="#05303d"/></g></g></svg>