<?xml version="1.0" encoding="UTF-8"?>
<!DOCTYPE svg PUBLIC "-//W3C//DTD SVG 1.1//EN" "http://www.w3.org/Graphics/SVG/1.1/DTD/svg11.dtd">
<!-- Creator: CorelDRAW 2020 (64-Bit) -->
<svg xmlns="http://www.w3.org/2000/svg" xml:space="preserve" width="2480px" height="2480px" version="1.1" style="shape-rendering:geometricPrecision; text-rendering:geometricPrecision; image-rendering:optimizeQuality; fill-rule:evenodd; clip-rule:evenodd"
viewBox="0 0 550.44 550.44"
 xmlns:xlink="http://www.w3.org/1999/xlink"
 xmlns:xodm="http://www.corel.com/coreldraw/odm/2003">
 <defs>
  <style type="text/css">
   <![CDATA[
    .fil0 {fill:white;fill-rule:nonzero}
   ]]>
  </style>
 </defs>
 <g id="Layer_x0020_1">
  <metadata id="CorelCorpID_0Corel-Layer"/>
  <g id="call.svg">
   <g>
    <g>
     <path class="fil0" d="M506.27 361.3c-33.7,0 -66.79,-5.27 -98.14,-15.63 -15.37,-5.24 -34.26,-0.43 -43.63,9.2l-61.9 46.72c-71.77,-38.32 -115.98,-82.52 -153.78,-153.75l45.35 -60.28c11.78,-11.77 16.01,-28.95 10.95,-45.08 -10.41,-31.52 -15.7,-64.6 -15.7,-98.31 0,-24.36 -19.81,-44.17 -44.17,-44.17l-101.08 0c-24.36,0 -44.17,19.81 -44.17,44.17 0,279.16 227.11,506.27 506.27,506.27 24.36,0 44.17,-19.81 44.17,-44.17l0 -100.8c0,-24.35 -19.81,-44.17 -44.17,-44.17z"/>
    </g>
   </g>
   <g>
   </g>
   <g>
   </g>
   <g>
   </g>
   <g>
   </g>
   <g>
   </g>
   <g>
   </g>
   <g>
   </g>
   <g>
   </g>
   <g>
   </g>
   <g>
   </g>
   <g>
   </g>
   <g>
   </g>
   <g>
   </g>
   <g>
   </g>
   <g>
   </g>
  </g>
 </g>
</svg>
