<svg height="512pt" viewBox="0 0 512 512" width="512pt" xmlns="http://www.w3.org/2000/svg"><path d="m492 198c-11.046875 0-20 8.953125-20 20v214c0 16.933594-10.582031 31.433594-25.476562 37.257812.773437-5.578124.601562-11.320312-.585938-17.003906-9.007812-43.007812-32.851562-82.140625-67.144531-110.183594-16.039063-13.121093-34.046875-23.511718-53.214844-30.90625 21.679687-19.070312 35.386719-47.003906 35.386719-78.078124 0-57.347657-46.65625-104-104-104-57.347656 0-104 46.652343-104 104 0 30.796874 13.460937 58.503906 34.800781 77.5625-19.671875 7.421874-38.144531 17.996093-54.558594 31.421874-34.292969 28.042969-58.136719 67.175782-67.144531 110.183594-1.1875 5.683594-1.359375 11.421875-.585938 17.003906-14.894531-5.824218-25.476562-20.324218-25.476562-37.257812v-352c0-22.054688 17.945312-40 40-40h215c11.046875 0 20-8.953125 20-20s-8.953125-20-20-20h-215c-44.113281 0-80 35.886719-80 80v352c0 44.113281 35.886719 80 80 80h352c44.113281 0 80-35.886719 80-80v-214c0-11.046875-8.953125-20-20-20zm-235.035156-28.914062c35.289062 0 64 28.710937 64 64 0 35.289062-28.710938 64-64 64-35.289063 0-64-28.710938-64-64 0-35.289063 28.710937-64 64-64zm-149.816406 299.367187c-1.074219-1.316406-2.75-4.109375-1.933594-8 14.792968-70.640625 78.117187-121.992187 150.785156-122.441406 72.667969.449219 135.992188 51.800781 150.785156 122.441406.8125 3.890625-.863281 6.683594-1.933594 8-1.078124 1.324219-3.480468 3.546875-7.503906 3.546875h-282.695312c-4.023438 0-6.429688-2.222656-7.503906-3.546875zm247.535156-417.453125h36.851562c5.484375 0 10.34375-2.109375 12.039063-7.289062l11.386719-35.027344c1.894531-5.789063 6.96875-8.683594 12.039062-8.683594s10.144531 2.894531 12.039062 8.683594l11.386719 35.027344c1.695313 5.179687 6.554688 7.289062 12.039063 7.289062h36.851562c12.261719 0 17.359375 16.972656 7.441406 24.128906l-29.816406 21.511719c-4.433594 3.199219-6.292968 8.871094-4.597656 14.050781l12.007812 34.800782c.503907 1.550781.699219 3.0625.636719 4.507812-.425781 9.347656-12.140625 15.742188-20.734375 9.542969l-29.8125-21.515625c-2.21875-1.597656-4.832031-2.398438-7.441406-2.398438s-5.222656.800782-7.441406 2.398438l-29.8125 21.515625c-8.59375 6.199219-20.363282-.195313-20.734375-9.542969-.058594-1.445312.140625-2.960938.648437-4.507812l11.996094-34.800782c1.695312-5.179687-.164062-10.851562-4.597656-14.050781l-29.816406-21.511719c-9.921876-7.15625-4.820313-24.128906 7.441406-24.128906zm0 0"/></svg>