<svg id="Layer_3" enable-background="new 0 0 64 64" height="512" viewBox="0 0 64 64" width="512" xmlns="http://www.w3.org/2000/svg"><g><path d="m36.893 12.797c4.603 4.603 7.589 10.575 8.51 17.019l2.597 18.184-18.184-2.598c-6.444-.921-12.416-3.907-17.019-8.51-4.525-4.525-7.489-10.375-8.462-16.699l-2.302-14.965c-.136-.882.157-1.776.788-2.407.631-.631 1.525-.924 2.407-.788l14.966 2.302c6.324.973 12.174 3.937 16.699 8.462z" fill="#db9b7c"/><path d="m4.636 21.845c-.116-.547-.216-1.097-.301-1.652l-2.302-14.965c-.136-.882.157-1.776.788-2.407.631-.631 1.525-.924 2.407-.788l14.966 2.302c.554.085 1.105.186 1.652.302.741 1.635 1.154 3.451 1.154 5.363 0 7.18-5.82 13-13 13-1.913 0-3.729-.413-5.364-1.155z" fill="#efbe9a"/><path d="m32.216 45.745-2.4-.343c-6.444-.921-12.416-3.907-17.019-8.51-1.425-1.424-2.695-2.981-3.797-4.642v3.459c0 2.656 1.415 5.111 3.714 6.442l9.745 5.642c3.186 1.843 7.241 1.082 9.541-1.793z" fill="#e47c6e"/><path d="m47 40 1.54-3.08c2.194-4.389 2.345-9.521.412-14.032l-1.619-3.778c-2.596-6.056-8.509-10.01-15.083-10.108l.001-.002c1.661 1.102 3.217 2.372 4.642 3.797 4.603 4.603 7.589 10.575 8.51 17.019l1.457 10.204z" fill="#e47c6e"/><path d="m62 49c-3.21-1.926-7.037-2.547-10.692-1.735l-3.308.735-.735 3.308c-.812 3.655-.191 7.482 1.735 10.692l4-9z" fill="#e47c6e"/><g><path d="m12 9.999c-1.103 0-2-.897-2-2s.897-2 2-2 2 .897 2 2c-.001 1.103-.898 2-2 2z" fill="#606060"/></g><path d="m3.704 10.29-1.053-1.043.498 3.237c2.65 2.269 5.981 3.516 9.508 3.516h2.342v-2h-2.342c-3.382 0-6.56-1.317-8.953-3.71z" fill="#db9b7c"/><g><path d="m28 18.999h-4v-2h3.585l1.415-1.414v-3.585h2v4c0 .266-.105.52-.292.708l-2 2c-.188.186-.443.291-.708.291z" fill="#efbe9a"/></g><g><path d="m16 30.999h-4v-2h3.585l1.415-1.414v-3.585h2v4c0 .266-.105.52-.292.708l-2 2c-.188.186-.443.291-.708.291z" fill="#efbe9a"/></g><g><path d="m25 27.999h-4v-2h3.585l1.415-1.414v-3.585h2v4c0 .266-.105.52-.292.708l-2 2c-.188.186-.443.291-.708.291z" fill="#efbe9a"/></g><g><path d="m34 24.999h-4v-2h3.585l1.415-1.414v-3.585h2v4c0 .266-.105.52-.292.708l-2 2c-.188.186-.443.291-.708.291z" fill="#efbe9a"/></g><g><path d="m22 36.999h-4v-2h3.585l1.415-1.414v-3.585h2v4c0 .266-.105.52-.292.708l-2 2c-.188.186-.443.291-.708.291z" fill="#efbe9a"/></g><g><path d="m31 33.999h-4v-2h3.585l1.415-1.414v-3.585h2v4c0 .266-.105.52-.292.708l-2 2c-.188.186-.443.291-.708.291z" fill="#efbe9a"/></g><g><path d="m40 30.999h-3v-2h2.586l1.414-1.414v-2.585h2l.001 3c0 .265-.105.52-.293.708l-2 2c-.188.186-.443.291-.708.291z" fill="#efbe9a"/></g><g><path d="m28 42.999h-3v-2h2.586l1.414-1.414v-2.585h2l.001 3c0 .265-.105.52-.293.708l-2 2c-.188.186-.443.291-.708.291z" fill="#efbe9a"/></g><g><path d="m37 39.999h-4v-2h3.585l1.415-1.414v-3.585h2v4c0 .266-.105.52-.292.708l-2 2c-.188.186-.443.291-.708.291z" fill="#efbe9a"/></g><g fill="#c66b60"><path d="m47.333 19.111c-.311-.726-.672-1.419-1.074-2.082l-8.352-3.132c.875.967 1.688 1.981 2.426 3.046l7.234 2.713z"/><path d="m43.464 22.691 6.287 2.612c-.211-.818-.461-1.628-.798-2.415l-.043-.101-6.724-2.794c.465.88.901 1.776 1.278 2.698z"/><path d="m45.09 28.12 5.177 2.151c.035-.725.034-1.452-.025-2.176l-5.743-2.386c.23.793.426 1.597.591 2.411z"/><path d="m24.119 48.494-.971-4.856c-.758-.296-1.504-.621-2.235-.977l.958 4.789.589.341c.531.309 1.089.538 1.659.703z"/><path d="m12.458 36.536 2.258 6.773 2.612 1.512-1.864-5.592c-.926-.73-1.826-1.496-2.666-2.337-.117-.116-.226-.238-.34-.356z"/></g></g></svg>