<?xml version="1.0" encoding="iso-8859-1"?>
<!-- Generator: Adobe Illustrator 19.0.0, SVG Export Plug-In . SVG Version: 6.00 Build 0)  -->
<svg version="1.1" id="Capa_1" xmlns="http://www.w3.org/2000/svg" xmlns:xlink="http://www.w3.org/1999/xlink" x="0px" y="0px"
	 viewBox="0 0 512 512" style="enable-background:new 0 0 512 512;" xml:space="preserve">
<path style="fill:#D98F64;" d="M305.342,208.255h106.853c55.098,0.017,99.787-44.629,99.804-99.735
	c0.009-19.471-5.677-38.509-16.364-54.785C454.168,127.575,386.118,182.829,305.342,208.255z"/>
<path style="fill:#ED9E6D;" d="M495.637,53.735c-18.412-28.161-49.794-45.132-83.441-45.141H290.663
	c-55.132-0.009-99.839,44.681-99.848,99.813c-0.009,23.899,8.568,47.007,24.15,65.124h6.25
	c29.628-0.026,57.728,13.152,76.652,35.939l1.476-1.215h5.999C386.118,182.829,454.168,127.575,495.637,53.735z"/>
<g>
	<path style="fill:#9E5135;" d="M99.683,373.192h39.064l4.514,0.694c3.62-11.624,9.349-22.492,16.902-32.05
		c-30.861,13.551-63.805,21.746-97.417,24.211C74.491,370.762,87.026,373.184,99.683,373.192z"/>
	<path style="fill:#9E5135;" d="M221.884,305.256c5.512-0.972,11.094-1.476,16.693-1.51h77.955v-0.694
		c9.549-30.609,3.759-63.935-15.548-89.535C281.14,249.16,254.221,280.385,221.884,305.256z"/>
</g>
<path style="fill:#D98F64;" d="M160.163,341.837c21.971-9.662,42.693-21.945,61.721-36.581
	C197.465,309.327,175.459,322.374,160.163,341.837z"/>
<path style="fill:#B85F3E;" d="M300.985,213.516c-1.033-1.354-2.023-2.743-3.116-4.045c-18.924-22.787-47.024-35.965-76.652-35.939
	H99.683C44.551,173.61-0.078,218.377,0,273.509c0.061,40.766,24.897,77.39,62.746,92.538c33.612-2.465,66.557-10.66,97.417-24.211
	c15.296-19.463,37.311-32.51,61.721-36.581C254.221,280.385,281.14,249.16,300.985,213.516z"/>
<path style="fill:#D98F64;" d="M187.742,489.378c15.365,9.176,32.935,14.028,50.835,14.028H360.11
	c55.132-0.017,99.813-44.724,99.804-99.857c-0.009-16.919-4.306-33.552-12.509-48.353
	C381.405,431.754,288.371,479.837,187.742,489.378z"/>
<path style="fill:#ED9E6D;" d="M447.405,355.197c-17.588-31.737-51.009-51.443-87.295-51.452H238.578
	c-55.098-0.035-99.787,44.603-99.822,99.7c-0.017,35.288,18.603,67.963,48.986,85.932
	C288.371,479.837,381.405,431.754,447.405,355.197z"/>
<g>
	<rect x="242.918" y="407.916" style="fill:#B85F3E;" width="17.362" height="26.043"/>
	<rect x="329.727" y="442.64" style="fill:#B85F3E;" width="17.362" height="26.043"/>
	<rect x="364.451" y="355.831" style="fill:#B85F3E;" width="17.362" height="26.043"/>
	<rect x="390.493" y="416.597" style="fill:#B85F3E;" width="17.362" height="26.043"/>
</g>
<g>
	<rect x="60.619" y="216.936" style="fill:#ED9E6D;" width="17.362" height="26.043"/>
	<rect x="104.023" y="277.702" style="fill:#ED9E6D;" width="17.362" height="26.043"/>
	<rect x="130.066" y="199.574" style="fill:#ED9E6D;" width="17.362" height="26.043"/>
	<rect x="225.556" y="225.617" style="fill:#ED9E6D;" width="17.362" height="26.043"/>
</g>
<g>
	<rect x="251.599" y="51.999" style="fill:#B85F3E;" width="17.362" height="26.043"/>
	<rect x="303.684" y="130.127" style="fill:#B85F3E;" width="17.362" height="26.043"/>
	<rect x="321.046" y="34.637" style="fill:#B85F3E;" width="17.362" height="26.043"/>
	<rect x="416.536" y="60.68" style="fill:#B85F3E;" width="17.362" height="26.043"/>
	<rect x="390.493" y="138.808" style="fill:#B85F3E;" width="17.362" height="26.043"/>
</g>
<g>
</g>
<g>
</g>
<g>
</g>
<g>
</g>
<g>
</g>
<g>
</g>
<g>
</g>
<g>
</g>
<g>
</g>
<g>
</g>
<g>
</g>
<g>
</g>
<g>
</g>
<g>
</g>
<g>
</g>
</svg>
