<?xml version="1.0" encoding="iso-8859-1"?>
<!-- Generator: Adobe Illustrator 19.0.0, SVG Export Plug-In . SVG Version: 6.00 Build 0)  -->
<svg version="1.1" id="Layer_1" xmlns="http://www.w3.org/2000/svg" xmlns:xlink="http://www.w3.org/1999/xlink" x="0px" y="0px"
	 viewBox="0 0 512.001 512.001" style="enable-background:new 0 0 512.001 512.001;" xml:space="preserve">
<path style="fill:#507C5C;" d="M415.676,394.806H66.195C29.696,394.806,0,365.111,0,328.61V88.935
	c0-33.698,27.414-61.114,61.114-61.114h389.773c33.698,0,61.114,27.414,61.114,61.114v226.023c0,8.304-6.734,15.037-15.037,15.037
	c-8.304,0-15.037-6.734-15.037-15.037V88.935c0-17.115-13.924-31.04-31.04-31.04H61.114c-17.115,0-31.04,13.924-31.04,31.04V328.61
	c0,19.917,16.204,36.121,36.121,36.121h349.479c8.304,0,15.037,6.734,15.037,15.037
	C430.712,388.071,423.979,394.806,415.676,394.806z"/>
<path style="fill:#CFF09E;" d="M256,237.006L496.963,88.934c0-25.448-20.63-46.077-46.077-46.077H61.113
	c-25.448,0.002-46.076,20.631-46.076,46.079L256,237.006L256,237.006z"/>
<g>
	<path style="fill:#507C5C;" d="M256,252.043c-2.728,0-5.459-0.741-7.872-2.226L7.165,101.746C2.713,99.01,0,94.159,0,88.935
		c0-33.698,27.414-61.114,61.114-61.114h389.773c33.698,0,61.114,27.414,61.114,61.114c0,5.225-2.713,10.075-7.165,12.812
		L263.873,249.819C261.458,251.302,258.729,252.043,256,252.043z M31.067,81.136L256,219.356L480.933,81.136
		c-3.469-13.353-15.625-23.24-30.046-23.24H61.114C46.692,57.896,34.536,67.783,31.067,81.136z"/>
	<path style="fill:#507C5C;" d="M396.085,445.1H122.701c-8.304,0-15.037-6.734-15.037-15.037c0-8.304,6.734-15.037,15.037-15.037
		h273.386c8.304,0,15.037,6.734,15.037,15.037C411.124,438.366,404.39,445.1,396.085,445.1z"/>
</g>
<polygon style="fill:#CFF09E;" points="392.914,342.154 488.241,405.648 392.914,469.143 "/>
<path style="fill:#507C5C;" d="M392.913,484.18c-2.433,0-4.872-0.591-7.098-1.782c-4.887-2.616-7.938-7.711-7.938-13.255V342.152
	c0-5.546,3.051-10.639,7.938-13.255c4.89-2.619,10.819-2.334,15.436,0.741l95.327,63.496c4.185,2.788,6.701,7.486,6.701,12.514
	s-2.516,9.728-6.701,12.514l-95.327,63.496C398.735,483.334,395.828,484.18,392.913,484.18z M407.951,370.236v70.825l53.163-35.413
	L407.951,370.236z"/>
<g>
</g>
<g>
</g>
<g>
</g>
<g>
</g>
<g>
</g>
<g>
</g>
<g>
</g>
<g>
</g>
<g>
</g>
<g>
</g>
<g>
</g>
<g>
</g>
<g>
</g>
<g>
</g>
<g>
</g>
</svg>
