<svg id="Capa_1" enable-background="new 0 0 512 512" height="512" viewBox="0 0 512 512" width="512" xmlns="http://www.w3.org/2000/svg"><g><g><path d="m347.442 415.985 14.181-14.181-26.897-26.897-14.181 14.181c-22.547 22.547-46.494 43.647-71.701 63.175-12.021 9.313-13.143 27.061-2.39 37.813 10.753 10.753 28.5 9.631 37.813-2.39 19.528-25.206 40.628-49.154 63.175-71.701z" fill="#aa8080"/></g><g><path d="m333.68 402.223c-22.547 22.547-43.647 46.494-63.175 71.701-7.191 9.283-19.41 12.059-29.556 7.895 1.229 2.993 3.055 5.808 5.505 8.258 10.753 10.753 28.5 9.631 37.813-2.39 19.528-25.206 40.628-49.154 63.175-71.701l14.181-14.181-13.762-13.762z" fill="#9d6b6b"/></g><g><path d="m63.766 76.876-24.271 24.272 174.824 196.705 46.152-46.153z" fill="#b3e59f"/></g><g><path d="m246.452 265.72 14.019-14.02-196.705-174.824-14.019 14.019z" fill="#95d6a4"/></g><g><path d="m10.68 103.366-3.131 11.596c-.906 3.356 1.804 6.589 5.267 6.284l32.596-2.876c2.339-.206 4.532-1.23 6.192-2.89l26.978-26.978c1.661-1.661 2.684-3.853 2.89-6.192l2.876-32.596c.305-3.463-2.928-6.173-6.284-5.267l-11.596 3.131c-27.198 7.342-48.445 28.588-55.788 55.788z" fill="#a298a5"/></g><path d="m78.064 44.446-9.119 2.462-4.737 53.7c-.093 1.055-.361 2.077-.77 3.037l15.144-15.144c1.661-1.661 2.684-3.853 2.89-6.192l2.876-32.596c.306-3.463-2.928-6.173-6.284-5.267z" fill="#8b818e"/><g><g><path d="m415.789 237.369-21.291-21.291 71.34-71.339c5.653-5.653 8.767-13.17 8.767-21.165v-48.905c0-16.504-13.427-29.932-29.931-29.932h-167.1c-16.504 0-29.931 13.428-29.931 29.932v43.958h-30.111v-43.958c0-33.108 26.935-60.043 60.042-60.043h167.098c33.108 0 60.042 26.935 60.042 60.043v48.904c0 16.038-6.245 31.117-17.586 42.457z" fill="#b3e59f"/></g></g><g><g><path d="m463.769 17.758c15.077 10.918 24.912 28.651 24.912 48.647v48.904c0 16.038-6.245 31.117-17.586 42.457l-67.455 67.454 12.149 12.149 71.34-71.339c11.341-11.34 17.586-26.418 17.586-42.457v-48.904c0-26.432-17.175-48.913-40.946-56.911z" fill="#95d6a4"/></g></g><g><path d="m380.783 363.949h-117.97c-34.794 0-63-28.206-63-63v-184.631c0-8.284 6.716-15 15-15h213.97c8.284 0 15 6.716 15 15v184.631c0 34.794-28.206 63-63 63z" fill="#ccf49f"/></g><path d="m428.783 101.318h-17.625v167.006c0 34.794-28.206 63-63 63h-117.97c-8.94 0-17.44-1.874-25.143-5.232 9.71 22.277 31.915 37.857 57.768 37.857h117.97c34.794 0 63-28.206 63-63v-184.631c0-8.284-6.716-15-15-15z" fill="#b3e59f"/><g><path d="m397.912 427.328-59.818-26.2-28.76-62.455c-1.327-2.882-.719-6.286 1.525-8.53l54.89-54.89c16.676-16.676 38.766-26.836 62.28-28.646l60.757-4.676c3.311-.255 6.069 2.503 5.814 5.814l-4.676 60.757c-1.81 23.513-11.97 45.604-28.646 62.28l-54.964 54.964c-2.209 2.206-5.543 2.835-8.402 1.582z" fill="#756e78"/></g><g><path d="m488.785 241.931-28.16 2.167-3.948 51.29c-1.81 23.513-11.97 45.604-28.646 62.28l-57.617 57.617 27.497 12.043c2.859 1.252 6.194.624 8.401-1.583l54.964-54.964c16.676-16.676 26.836-38.766 28.646-62.28l4.676-60.757c.256-3.31-2.502-6.068-5.813-5.813z" fill="#665e66"/></g><g><path d="m291.824 202.489 27.049-54.367c1.202-2.415 4.648-2.415 5.849 0l27.049 54.367z" fill="#e28086"/></g><g><path d="m321.797 235.262c-25.728 0-46.585-20.857-46.585-46.585v-33.332c0-3.02 3.747-4.423 5.73-2.145l37.924 43.555c1.549 1.779 4.312 1.779 5.86 0l37.924-43.555c1.983-2.278 5.73-.875 5.73 2.145v33.332c.002 25.729-20.854 46.585-46.583 46.585z" fill="#e4989d"/></g><g><path d="m346.199 417.228-26.897-26.897 51.175-51.175c7.427-7.427 19.47-7.427 26.897 0 7.427 7.427 7.427 19.47 0 26.897z" fill="#a298a5"/></g><g><path d="m397.374 339.156c-2.518-2.518-5.571-4.161-8.79-4.972 1.581 6.276-.063 13.198-4.972 18.107l-49.932 49.932c-.414.414-.819.837-1.233 1.252l13.752 13.752 51.175-51.175c7.427-7.426 7.427-19.469 0-26.896z" fill="#8b818e"/></g><g><path d="m62.352 187.697c0 10.18-8.253 18.432-18.432 18.432s-18.432-8.253-18.432-18.432c0-7.957 11.262-27.344 16.18-35.431 1.028-1.691 3.477-1.691 4.505 0 4.917 8.087 16.179 27.473 16.179 35.431z" fill="#ddeafb"/></g><g><path d="m62.352 272.543c0 10.18-8.253 18.432-18.432 18.432s-18.432-8.253-18.432-18.432c0-7.957 11.262-27.344 16.18-35.43 1.028-1.691 3.477-1.691 4.505 0 4.917 8.086 16.179 27.473 16.179 35.43z" fill="#ddeafb"/></g><g><path d="m46.172 152.266c-1.028-1.691-3.477-1.691-4.505 0-1.09 1.792-2.492 4.14-4.013 6.794 2.683 5.713 4.687 11.099 4.687 14.453 0 9.483-7.164 17.286-16.373 18.311 1.877 8.19 9.193 14.305 17.952 14.305 10.18 0 18.432-8.252 18.432-18.432 0-7.958-11.262-27.344-16.18-35.431z" fill="#cbe2ff"/></g><g><path d="m46.172 237.113c-1.028-1.691-3.477-1.691-4.505 0-1.09 1.792-2.492 4.14-4.013 6.794 2.683 5.713 4.687 11.099 4.687 14.453 0 9.483-7.164 17.286-16.373 18.311 1.877 8.19 9.193 14.305 17.952 14.305 10.18 0 18.432-8.252 18.432-18.432 0-7.958-11.262-27.345-16.18-35.431z" fill="#cbe2ff"/></g><g><path d="m492.28 171.181c12.716-12.715 19.72-29.624 19.72-47.608v-48.904c0-37.125-30.203-67.328-67.327-67.328h-19.63c-4.023 0-7.285 3.261-7.285 7.285s3.262 7.285 7.285 7.285h19.63c29.09 0 52.758 23.668 52.758 52.758v48.904c0 14.093-5.488 27.341-15.453 37.305l-30.91 30.909v-21.977l19.921-19.921c7.029-7.029 10.9-16.375 10.9-26.316v-48.904c0-20.521-16.695-37.217-37.216-37.217h-167.099c-20.521 0-37.216 16.696-37.216 37.217v19.364h-15.541v-19.364c0-29.09 23.667-52.758 52.758-52.758h114.261c4.023 0 7.285-3.261 7.285-7.285s-3.262-7.285-7.285-7.285h-114.262c-37.124 0-67.327 30.203-67.327 67.328v19.761c-10.08 1.939-17.72 10.821-17.72 21.457v65.68l-105.095-93.404c.684-1.619 1.132-3.338 1.289-5.11l2.902-32.905c.349-3.948-1.256-7.825-4.294-10.371-3.039-2.547-7.139-3.453-10.965-2.418l-13.054 3.524c-28.813 7.779-51.544 30.51-59.323 59.324l-3.524 13.054c-2.361 7.837 4.682 16.213 12.789 15.258l32.903-2.903c1.529-.134 3.022-.48 4.443-1.011l141.929 159.695v18.456c0 37.759 30.719 68.478 68.479 68.478h55.302l3.717 8.072-4.662 4.662c-22.237 22.234-46.117 43.275-70.98 62.537-7.383 5.72-11.955 14.346-12.544 23.666-.589 9.321 2.86 18.454 9.464 25.057 13.174 13.774 37.409 12.22 48.723-3.079 19.27-24.874 40.321-48.765 62.567-71.011l3.967-3.967 38.427 16.829c5.581 2.458 12.098 1.284 16.477-3.104l54.964-54.964c7.62-7.62 14.015-16.328 19.007-25.88 1.863-3.566.483-7.967-3.082-9.831-3.566-1.862-7.967-.482-9.83 3.083-4.306 8.24-9.823 15.751-16.397 22.324l-54.964 54.964c-.087.086-.214.111-.327.062l-33.213-14.547 34.903-34.903c10.255-10.256 10.256-26.944 0-37.201-10.256-10.254-26.944-10.255-37.2 0l-34.318 34.319-15.056-32.696c-.052-.114-.029-.244.059-.332l54.89-54.89c15.435-15.435 35.922-24.858 57.688-26.534l58.58-4.508-4.509 58.58c-.203 2.646-.526 5.314-.96 7.933-.657 3.969 2.028 7.719 5.997 8.377 3.977.655 7.72-2.028 8.377-5.998.502-3.034.876-6.128 1.113-9.194l4.676-60.756c.285-3.701-1.058-7.33-3.683-9.954-2.625-2.626-6.252-3.969-9.953-3.681l-37.158 2.86v-25.135zm-213.771 312.044c-6.246 8.451-19.643 9.3-26.904 1.7-3.646-3.646-5.551-8.689-5.226-13.836.325-5.146 2.85-9.909 6.926-13.067 22.977-17.801 45.118-37.103 65.945-57.439l16.696 16.697c-20.336 20.828-39.637 42.968-57.437 65.945zm97.119-138.918c4.575-4.576 12.02-4.575 16.595-.001 4.575 4.576 4.575 12.02 0 16.595l-46.024 46.024-16.594-16.595zm-120.7-269.638c0-12.488 10.159-22.647 22.646-22.647h167.098c12.487 0 22.646 10.159 22.646 22.647v48.904c0 6.049-2.356 11.737-6.633 16.014l-9.618 9.618v-33.317c0-12.051-9.804-21.855-21.855-21.855h-174.284zm-239.492 39.032 2.618-9.695c6.433-23.827 25.229-42.624 49.055-49.056l9.696-2.618-2.597 29.44c-.05.567-.299 1.101-.701 1.503l-27.127 27.127c-.403.402-.937.652-1.504.702zm46.509 1.74 16.115-16.115 114.467 101.734v61.307zm365.525 123.903c-25.23 1.942-48.979 12.865-66.872 30.757l-27.018 27.018h-65.589c-4.023 0-7.285 3.261-7.285 7.285s3.262 7.285 7.285 7.285h51.019l-13.302 13.303c-4.38 4.38-5.582 11.103-2.991 16.729l6.881 14.944h-48.592c-26.681 0-48.884-19.488-53.155-44.975h27.322c4.023 0 7.285-3.261 7.285-7.285s-3.262-7.285-7.285-7.285h-28.075v-181.232c0-4.017 3.268-7.285 7.285-7.285h214.831c4.017 0 7.285 3.268 7.285 7.285v122.761z"/><path d="m368.815 145.464c-4.163-1.559-8.738-.399-11.657 2.953l-15.37 17.652-10.544-21.193c-1.795-3.608-5.415-5.851-9.446-5.852 0 0 0 0-.001 0-4.031 0-7.651 2.242-9.447 5.852l-10.543 21.192-15.37-17.652c-2.918-3.35-7.492-4.51-11.657-2.952-4.162 1.558-6.852 5.437-6.852 9.882v33.331c0 27.232 20.316 49.795 46.585 53.364v19.566c0 4.024 3.262 7.285 7.285 7.285s7.285-3.261 7.285-7.285v-19.566c26.269-3.569 46.585-26.131 46.585-53.364v-33.331c-.001-4.445-2.69-8.323-6.853-9.882zm-47.018 13.133 9.634 19.365-9.634 11.065-9.634-11.064zm39.3 30.081c0 21.67-17.63 39.3-39.3 39.3s-39.3-17.63-39.3-39.3v-22.598l30.876 35.459c2.122 2.438 5.192 3.835 8.424 3.835s6.302-1.397 8.424-3.835l30.876-35.459z"/><path d="m43.919 143.713c-3.492 0-6.661 1.782-8.477 4.767-11.44 18.812-17.241 32.005-17.241 39.216 0 14.181 11.537 25.717 25.718 25.717s25.717-11.536 25.717-25.717c0-7.211-5.8-20.404-17.241-39.216-1.815-2.985-4.984-4.767-8.476-4.767zm.001 55.131c-6.147 0-11.148-5.001-11.148-11.147 0-2.817 3.519-11.606 11.147-24.924 7.63 13.319 11.148 22.107 11.148 24.924 0 6.147-5.001 11.147-11.147 11.147z"/><path d="m43.919 228.559c-3.492 0-6.661 1.782-8.477 4.768-11.44 18.813-17.241 32.007-17.241 39.215 0 14.181 11.537 25.717 25.718 25.717s25.717-11.536 25.717-25.717c0-7.208-5.8-20.403-17.241-39.216-1.815-2.985-4.984-4.767-8.476-4.767zm.001 55.131c-6.147 0-11.148-5.001-11.148-11.147 0-2.816 3.519-11.604 11.147-24.923 7.63 13.32 11.148 22.107 11.148 24.923 0 6.146-5.001 11.147-11.147 11.147z"/></g></g></svg>