<svg id="flat" height="512" viewBox="0 0 512 512" width="512" xmlns="http://www.w3.org/2000/svg"><path d="m376 272v40a176.02114 176.02114 0 0 1 -345.37 48q-2.235-7.86-3.72009-16a176.67317 176.67317 0 0 1 -2.90991-32v-40a175.96941 175.96941 0 0 1 294.05005-130.54q3.2699 2.97 6.3999 6.09009a176.17984 176.17984 0 0 1 29.48 39.07007 174.26748 174.26748 0 0 1 19.16014 53.37984q1.455 7.875 2.18994 16 .71997 7.905.71997 16z" fill="#b9cd2a"/><path d="m216 136v-48l24-32h48l16-32h-80l-24 32-24-16h-80l8 32h56l24 16v72z" fill="#b1712c"/><path d="m112 344v16h-81.37q-2.235-7.86-3.72009-16z" fill="#acc221"/><path d="m121.75 415.2-3.5 15.61011a48.90375 48.90375 0 0 1 -23.90991-13.15015 32.72016 32.72016 0 0 0 -23.31009-9.65996h-18.56a176.18613 176.18613 0 0 1 -9.28-16h27.84a48.6518 48.6518 0 0 1 34.62988 14.33984 32.86982 32.86982 0 0 0 16.09012 8.86016z" fill="#acc221"/><path d="m353.30005 296a61.19556 61.19556 0 0 0 -7.51-15.74 45.318 45.318 0 0 1 -7.6001-24.26h37.09005q-.735-8.11524-2.18994-16h-32.35006a44.653 44.653 0 0 1 4.33008-9.01l17.12992-27.41993a173.45074 173.45074 0 0 0 -8.27-16.94995l-3.35993 5.37988h-18.57007a52.29229 52.29229 0 0 1 -31.19995-10.3999c-1.57007-1.18018-3.19006-2.27-4.8501-3.3l22.1001-36.8401a176.10483 176.10483 0 0 0 -16.84005-13.46h-65.59a67.22633 67.22633 0 0 0 -40.46009 13.62988 51.14308 51.14308 0 0 1 -30.77991 10.37012h-36.38v16h36.38a67.11933 67.11933 0 0 0 26.99-5.72 89.2373 89.2373 0 0 0 58.56994 21.72h10.06006a51.76314 51.76314 0 0 1 12.88 1.6499l-16.05993 26.77a76.64792 76.64792 0 0 0 -4.26 8.18018 102.84489 102.84489 0 0 0 -49.40016-12.60008h-91.15991v16h43.81006l27.81994 40.17993a55.85637 55.85637 0 0 0 -35.43 16.31007l-1.35986 1.34985-20.18018-30.27978-13.31982 8.87988 20.82983 31.24a40.06333 40.06333 0 0 1 -18.16997 4.32005h-60v16h60a55.89066 55.89066 0 0 0 39.80005-16.49l3.71-3.71a40.29308 40.29308 0 0 1 56.98 0l3.71 3.71a55.89066 55.89066 0 0 0 39.79995 16.49h116v-16zm-93.30005-128h-10.06006a73.37623 73.37623 0 0 1 -43.94994-14.46 51.1064 51.1064 0 0 1 29.63-9.54h62.25l-16.49 27.48a68.00477 68.00477 0 0 0 -21.38-3.48zm10.54 52.65991 17.18-28.64991c1.18994.75 2.3501 1.55 3.48 2.38989a68.41145 68.41145 0 0 0 40.8 13.60011h8.57007l-9.07007 14.51a61.08726 61.08726 0 0 0 -7.43994 17.49h-15.22a86.92894 86.92894 0 0 1 -42.47006-11.04 61.93738 61.93738 0 0 1 4.17-8.30009zm-10.54 75.34009a40.02932 40.02932 0 0 1 -28.49-11.8l-3.71-3.71a56.01294 56.01294 0 0 0 -23.1-13.98l-29.43-42.51h27.88989a86.99051 86.99051 0 0 1 44.34011 12.12012 76.081 76.081 0 0 0 12.55005 59.87988zm19.23 0a77.71523 77.71523 0 0 0 -5.22-7.99 60.23519 60.23519 0 0 1 -11.73-43.11011 102.93353 102.93353 0 0 0 46.56009 11.10011h13.34985a61.37125 61.37125 0 0 0 10.29 33.14014 45.27964 45.27964 0 0 1 3.75006 6.85986z" fill="#acc221"/><path d="m80 208h16v16h-16z" fill="#acc221"/><path d="m488 328v30.18994a129.802 129.802 0 0 1 -129.81006 129.81006h-92.37988a129.802 129.802 0 0 1 -129.81006-129.81006v-30.18994h47.03a40.9783 40.9783 0 0 1 28.97 12 40.9783 40.9783 0 0 0 28.97 12 55.55975 55.55975 0 0 1 39.31 16.28 16.54129 16.54129 0 0 0 17.85 3.67l10.62-4.25a64.00039 64.00039 0 0 1 39.36-2.67 17.38342 17.38342 0 0 0 18.69006-7.23 23.56638 23.56638 0 0 1 25.29994-9.78 23.21722 23.21722 0 0 0 24.99011-9.66016 23.28 23.28 0 0 1 19.35989-10.35984z" fill="#cde046"/><path d="m448 328v31.12012a88.88864 88.88864 0 0 1 -88.88 88.87988h-94.24a88.88864 88.88864 0 0 1 -88.88-88.87988v-31.12012h7.03a40.9783 40.9783 0 0 1 28.97 12 40.9783 40.9783 0 0 0 28.97 12 55.55975 55.55975 0 0 1 39.31 16.28 16.54129 16.54129 0 0 0 17.85 3.67l10.62-4.25a64.00039 64.00039 0 0 1 39.36-2.67 17.38342 17.38342 0 0 0 18.69006-7.23 23.56638 23.56638 0 0 1 25.29994-9.78 23.21722 23.21722 0 0 0 24.99011-9.66016 23.28 23.28 0 0 1 19.35989-10.35984z" fill="#ffd873"/><g fill="#ffcc4d"><path d="m304 400h16v24h-16z"/><path d="m264 397.823h24v16h-24z" transform="matrix(.333 -.943 .943 .333 -198.619 530.746)"/><path d="m232.118 380h24v16h-24z" transform="matrix(.629 -.778 .778 .629 -211.097 333.994)"/><path d="m340 393.823h16v24h-16z" transform="matrix(.943 -.333 .333 .943 -115.374 139.212)"/><path d="m371.882 376h16v24h-16z" transform="matrix(.778 -.629 .629 .778 -159.456 325.003)"/></g></svg>