<?xml version="1.0" encoding="iso-8859-1"?>
<!-- Generator: Adobe Illustrator 19.0.0, SVG Export Plug-In . SVG Version: 6.00 Build 0)  -->
<svg version="1.1" id="Capa_1" xmlns="http://www.w3.org/2000/svg" xmlns:xlink="http://www.w3.org/1999/xlink" x="0px" y="0px"
	 viewBox="0 0 512 512" style="enable-background:new 0 0 512 512;" xml:space="preserve">
<path style="fill:#BA6746;" d="M233.641,211.315c1.056,1.461,2.369,2.772,3.928,3.865l54.235,37.988
	c4.547,3.184,10.383,3.882,15.552,1.858l75.157-29.433c8.524-3.338,12.726-12.953,9.388-21.476
	c-3.333-8.525-12.953-12.726-21.477-9.388l-66.882,26.193l-46.956-32.89c-7.498-5.251-17.832-3.431-23.083,4.067
	C229.342,198.035,229.621,205.753,233.641,211.315z"/>
<path style="fill:#BE1E14;" d="M391.9,204.116c-3.333-8.525-12.953-12.726-21.477-9.388l-51.701,20.246l10.131,31.631l53.657-21.013
	C391.035,222.254,395.238,212.639,391.9,204.116z"/>
<path style="fill:#414B82;" d="M333.706,500.082c-1.749,0-3.526-0.218-5.3-0.673c-11.373-2.919-18.227-14.505-15.309-25.878
	l25.862-100.782c1.151-4.486,3.736-8.475,7.361-11.357l67.037-53.302c9.192-7.308,22.567-5.782,29.874,3.41
	c7.308,9.19,5.782,22.566-3.41,29.874l-61.45,48.859L354.282,484.1C351.82,493.701,343.179,500.081,333.706,500.082z"/>
<path style="fill:#5F6E9B;" d="M488.508,500.082c-6.965,0-13.79-3.419-17.861-9.699l-49.937-77.042
	c-2.922-4.507-4.028-9.953-3.099-15.243l6.001-43.837l-8.969-24.93l56.658-10.148l-10.366,78.042l45.392,70.029
	c6.387,9.853,3.577,23.019-6.277,29.405C496.48,498.976,492.471,500.082,488.508,500.082z"/>
<path style="fill:#CD2D23;" d="M471.355,319.1l-44.038-116.704c-2.555-6.773-7.428-12.353-13.542-15.51
	c-6.113-3.157-12.963-3.628-19.034-1.309l-40.605,15.504c-12.606,4.814-18.479,20.098-13.117,34.14l38.363,100.473L471.355,319.1z"
	/>
<g>
	<circle style="fill:#BA6746;" cx="348.942" cy="138.346" r="37.717"/>
	<path style="fill:#BA6746;" d="M495.721,327.002c-5.033,0-9.997-2.324-13.185-6.705l-39.384-54.105l-58.09-44.111
		c-7.165-5.441-8.564-15.662-3.123-22.827c5.442-7.166,15.663-8.564,22.828-3.123l59.998,45.561c1.265,0.961,2.384,2.103,3.32,3.387
		l40.794,56.043c5.296,7.275,3.69,17.464-3.584,22.76C502.401,325.988,499.045,327.002,495.721,327.002z"/>
</g>
<path style="fill:#BE1E14;" d="M385.062,222.081l31.64,24.027l17.804-27.395l-29.738-22.582c-7.165-5.441-17.386-4.043-22.828,3.123
	C376.498,206.419,377.897,216.639,385.062,222.081z"/>
<path style="fill:#53618C;" d="M148.216,444.593c-11.943,0-21.624-9.681-21.624-21.624v-95.538l-56.835-89.263
	c-6.414-10.074-3.447-23.44,6.627-29.855c10.073-6.414,23.441-3.448,29.855,6.627l60.218,94.576c2.21,3.47,3.383,7.5,3.383,11.614
	v101.838C169.84,434.912,160.159,444.593,148.216,444.593z"/>
<path style="fill:#5F6E9B;" d="M164.865,100.814l-41.226-15.741c-6.167-2.356-13.126-1.872-19.339,1.344
	c-6.212,3.215-11.164,8.897-13.762,15.787L44.021,225.628c-2.843,7.542-4.585,15.453-5.174,23.491L26.221,421.384
	c-0.876,11.911,8.07,22.276,19.98,23.151c0.54,0.04,1.075,0.059,1.609,0.059c11.221,0,20.707-8.668,21.543-20.039l14.243-164.653
	l13.587-16.083l35.058,11.997l45.931-120.293C183.624,121.243,177.667,105.702,164.865,100.814z"/>
<path style="fill:#FFB69E;" d="M17.083,216.915c-2.345,0-4.727-0.485-7.005-1.51c-8.606-3.874-12.442-13.991-8.568-22.596
	l26.484-58.835c1.521-3.379,4.099-6.171,7.344-7.957l69.744-38.375c8.268-4.552,18.659-1.535,23.21,6.733
	c4.55,8.269,1.534,18.66-6.733,23.21l-64.743,35.624l-24.141,53.629C29.826,213.166,23.6,216.915,17.083,216.915z"/>
<path style="fill:#78BEFF;" d="M128.292,94.375c-4.551-8.269-14.942-11.285-23.21-6.733l-40.175,22.105l13.656,31.495l42.995-23.657
	C129.827,113.034,132.841,102.643,128.292,94.375z"/>
<path style="fill:#64AFFF;" d="M44.021,225.629l46.517-123.423c2.598-6.891,7.55-12.573,13.762-15.788
	c6.212-3.215,13.172-3.699,19.339-1.344l41.226,15.741c12.802,4.888,18.759,20.428,13.307,34.709l-45.931,120.293L44.021,225.629z"
	/>
<circle style="fill:#FFB69E;" cx="170.003" cy="49.635" r="37.717"/>
<path style="fill:#6E7B85;" d="M183.035,500.082H17.022c-3.881,0-7.028-3.146-7.028-7.028v-41.772c0-3.881,3.146-7.028,7.028-7.028
	h166.012c3.881,0,7.028,3.146,7.028,7.028v41.772C190.061,496.935,186.916,500.082,183.035,500.082z"/>
<path style="fill:#FFB69E;" d="M238.209,229.043c-1.852,0.153-3.759,0.005-5.661-0.484l-66.122-16.995
	c-5.543-1.425-10.003-5.529-11.885-10.934l-27.355-78.597c-3.103-8.913,1.609-18.653,10.522-21.756
	c8.911-3.108,18.653,1.609,21.756,10.522l24.344,69.944l57.249,14.715c9.14,2.35,14.646,11.664,12.296,20.804
	C251.491,223.502,245.259,228.461,238.209,229.043z"/>
<path style="fill:#78BEFF;" d="M142.324,165.531l31.902-12.314L159.463,110.8c-3.103-8.913-12.844-13.63-21.756-10.522
	c-8.913,3.103-13.625,12.842-10.522,21.756L142.324,165.531z"/>
<g>
</g>
<g>
</g>
<g>
</g>
<g>
</g>
<g>
</g>
<g>
</g>
<g>
</g>
<g>
</g>
<g>
</g>
<g>
</g>
<g>
</g>
<g>
</g>
<g>
</g>
<g>
</g>
<g>
</g>
</svg>
