<?xml version="1.0" encoding="iso-8859-1"?>
<!-- Generator: Adobe Illustrator 19.0.0, SVG Export Plug-In . SVG Version: 6.00 Build 0)  -->
<svg version="1.1" id="Capa_1" xmlns="http://www.w3.org/2000/svg" xmlns:xlink="http://www.w3.org/1999/xlink" x="0px" y="0px"
	 viewBox="0 0 512 512" style="enable-background:new 0 0 512 512;" xml:space="preserve">
<path style="fill:#74D6D0;" d="M260.243,160.435l-3.635,0.009c-16.601,0.042-30.091-13.381-30.132-29.982l-0.081-32.427
	L96.73,98.361l0.081,32.427c0.042,16.599-13.38,30.091-29.982,30.132l-3.077,0.008c-33.952,0.085-61.407,27.678-61.323,61.63
	l0.493,196.779c0.085,33.952,27.678,61.407,61.63,61.323l196.49-0.491c33.952-0.085,61.406-27.678,61.32-61.63l-0.493-196.779
	C321.786,187.806,294.195,160.35,260.243,160.435z"/>
<path style="fill:#CCF7F5;" d="M162.041,98.197H97.208v32.427c0,16.599-13.455,30.057-30.057,30.057h-3.077
	c-33.952,0-61.477,27.524-61.477,61.477v196.779c0,33.953,27.525,61.476,61.477,61.476h97.967V98.197z"/>
<rect x="2.598" y="250.298" style="fill:#E0E0E0;" width="207.394" height="140.191"/>
<rect x="2.598" y="250.298" style="fill:#F4F4F4;" width="159.442" height="140.191"/>
<path style="fill:#06ABA4;" d="M497.731,436.309c15.787,15.786,15.787,41.381,0,57.169l0,0c-15.787,15.786-41.379,15.786-57.166,0
	l-67.484-67.483c-15.787-15.787-15.787-41.382,0-57.168l0,0c15.787-15.787,41.382-15.787,57.169,0L497.731,436.309z"/>
<g>
	<path style="fill:#E03905;" d="M359.984,431.152c22.326,0,40.425,18.097,40.425,40.425l0,0c0,22.325-18.099,40.424-40.425,40.424
		h-95.434c-22.326,0-40.425-18.099-40.425-40.424l0,0c0-22.326,18.099-40.425,40.425-40.425H359.984z"/>
	<path style="fill:#E03905;" d="M256.93,79.643c0,16.601-13.457,30.057-30.057,30.057H97.765c-16.599,0-30.057-13.457-30.057-30.057
		V30.057C67.709,13.457,81.165,0,97.765,0h129.108c16.599,0,30.057,13.457,30.057,30.057V79.643z"/>
</g>
<path style="fill:#FF8546;" d="M162.041,0H97.765C81.165,0,67.707,13.457,67.707,30.057v49.587
	c0,16.601,13.457,30.057,30.057,30.057h64.276V0L162.041,0z"/>
<g>
</g>
<g>
</g>
<g>
</g>
<g>
</g>
<g>
</g>
<g>
</g>
<g>
</g>
<g>
</g>
<g>
</g>
<g>
</g>
<g>
</g>
<g>
</g>
<g>
</g>
<g>
</g>
<g>
</g>
</svg>
